<svg xmlns="http://www.w3.org/2000/svg" xmlns:xlink="http://www.w3.org/1999/xlink" width="731" zoomAndPan="magnify" viewBox="0 0 548.25 248.250006" height="331" preserveAspectRatio="xMidYMid meet" version="1.0"><defs><g/></defs><path fill="#424242" d="M 121.191406 99.507812 C 121.316406 99.488281 121.441406 99.472656 121.566406 99.460938 C 121.8125 99.4375 122.0625 99.414062 122.308594 99.390625 C 122.554688 99.363281 122.804688 99.34375 123.050781 99.3125 C 123.136719 99.300781 123.21875 99.289062 123.304688 99.273438 C 123.441406 99.132812 123.578125 98.992188 123.707031 98.851562 C 123.90625 98.636719 124.09375 98.414062 124.28125 98.195312 C 124.398438 98.054688 124.511719 97.910156 124.621094 97.765625 C 124.625 97.707031 124.628906 97.652344 124.628906 97.597656 C 124.628906 97.480469 124.632812 97.363281 124.625 97.246094 C 124.617188 97.128906 124.609375 97.019531 124.597656 96.90625 C 124.582031 96.792969 124.566406 96.683594 124.542969 96.574219 C 124.496094 96.359375 124.429688 96.152344 124.34375 95.957031 C 124.257812 95.765625 124.148438 95.582031 124.023438 95.417969 C 123.902344 95.25 123.757812 95.097656 123.601562 94.953125 C 123.523438 94.882812 123.441406 94.816406 123.359375 94.75 C 123.273438 94.6875 123.1875 94.621094 123.097656 94.5625 C 122.925781 94.449219 122.75 94.339844 122.5625 94.246094 C 122.574219 94.320312 122.582031 94.398438 122.585938 94.472656 C 122.605469 94.808594 122.558594 95.128906 122.492188 95.4375 C 122.351562 96.054688 122.101562 96.621094 121.824219 97.160156 C 121.542969 97.703125 121.21875 98.210938 120.875 98.707031 C 120.636719 99.042969 120.390625 99.375 120.132812 99.695312 C 120.359375 99.644531 120.589844 99.59375 120.820312 99.5625 C 120.941406 99.539062 121.066406 99.523438 121.191406 99.507812 " fill-opacity="1" fill-rule="nonzero"/><path fill="#424242" d="M 135.78125 105.8125 C 135.785156 105.8125 135.785156 105.8125 135.785156 105.8125 C 135.792969 105.808594 135.800781 105.808594 135.804688 105.804688 L 135.78125 105.8125 " fill-opacity="1" fill-rule="nonzero"/><path fill="#424242" d="M 111.792969 107.929688 C 111.824219 107.921875 111.855469 107.914062 111.890625 107.90625 C 111.886719 107.875 111.882812 107.84375 111.878906 107.820312 C 111.867188 107.75 111.863281 107.671875 111.863281 107.597656 C 111.859375 107.582031 111.863281 107.5625 111.859375 107.546875 C 111.855469 107.5 111.851562 107.449219 111.851562 107.398438 C 111.847656 107.335938 111.847656 107.269531 111.851562 107.203125 C 111.855469 107.132812 111.859375 107.066406 111.871094 107 C 111.882812 106.929688 111.890625 106.863281 111.914062 106.796875 C 111.933594 106.730469 111.953125 106.664062 111.976562 106.597656 L 112.070312 106.402344 C 112.105469 106.34375 112.148438 106.285156 112.1875 106.230469 L 107.476562 95.410156 C 107.375 95.175781 107.1875 94.996094 106.949219 94.902344 C 106.835938 94.859375 106.71875 94.835938 106.601562 94.835938 C 106.46875 94.835938 106.34375 94.863281 106.21875 94.917969 C 105.984375 95.015625 105.808594 95.203125 105.710938 95.441406 C 105.621094 95.679688 105.625 95.9375 105.726562 96.171875 L 110.972656 108.21875 L 111.792969 107.929688 " fill-opacity="1" fill-rule="nonzero"/><path fill="#424242" d="M 112.601562 107.5 C 112.617188 107.589844 112.636719 107.679688 112.664062 107.773438 C 112.667969 107.792969 112.675781 107.8125 112.683594 107.832031 C 112.738281 107.824219 112.792969 107.816406 112.851562 107.808594 C 112.890625 107.804688 112.929688 107.800781 112.96875 107.796875 C 113.800781 107.707031 114.625 107.679688 115.445312 107.667969 C 117.164062 107.644531 118.867188 107.691406 120.570312 107.664062 C 121.417969 107.648438 122.269531 107.628906 123.117188 107.585938 C 123.964844 107.539062 124.808594 107.488281 125.652344 107.402344 C 126.074219 107.371094 126.496094 107.316406 126.917969 107.269531 C 127.335938 107.214844 127.757812 107.164062 128.175781 107.097656 C 128.59375 107.03125 129.015625 106.972656 129.429688 106.894531 L 130.046875 106.78125 L 130.667969 106.644531 C 131.5 106.457031 132.328125 106.257812 133.144531 106.039062 C 133.554688 105.929688 133.960938 105.816406 134.359375 105.683594 C 134.753906 105.554688 135.160156 105.417969 135.5 105.246094 L 135.515625 105.234375 L 135.519531 105.234375 C 135.617188 105.195312 135.695312 105.164062 135.78125 105.136719 C 135.808594 105.128906 135.832031 105.125 135.855469 105.117188 L 135.832031 105.089844 C 135.933594 104.996094 136.21875 104.667969 136.199219 104.390625 C 136.195312 104.335938 136.179688 104.167969 135.878906 103.96875 C 135.339844 103.613281 134.984375 103.21875 134.757812 102.878906 L 134.644531 102.992188 L 134.410156 103.210938 C 134.253906 103.351562 134.09375 103.492188 133.925781 103.621094 C 133.761719 103.753906 133.589844 103.875 133.417969 104 C 133.246094 104.117188 133.070312 104.238281 132.894531 104.347656 C 132.714844 104.453125 132.535156 104.566406 132.351562 104.664062 C 132.167969 104.757812 131.984375 104.867188 131.796875 104.957031 C 131.605469 105.042969 131.421875 105.144531 131.230469 105.21875 C 131.035156 105.296875 130.847656 105.382812 130.652344 105.457031 L 130.0625 105.667969 C 129.867188 105.730469 129.667969 105.789062 129.46875 105.847656 C 129.273438 105.910156 129.070312 105.953125 128.867188 106.003906 C 128.667969 106.054688 128.46875 106.105469 128.265625 106.140625 L 127.65625 106.246094 C 127.453125 106.273438 127.246094 106.300781 127.042969 106.324219 C 126.941406 106.335938 126.839844 106.351562 126.734375 106.359375 L 126.429688 106.382812 C 126.226562 106.390625 126.019531 106.40625 125.816406 106.414062 C 126.015625 106.363281 126.214844 106.316406 126.410156 106.269531 L 126.710938 106.199219 C 126.808594 106.175781 126.90625 106.148438 127.003906 106.121094 C 127.199219 106.0625 127.398438 106.011719 127.589844 105.960938 L 128.171875 105.777344 C 128.363281 105.722656 128.554688 105.65625 128.746094 105.585938 C 128.933594 105.519531 129.125 105.457031 129.3125 105.378906 L 129.871094 105.152344 L 130.421875 104.910156 C 130.601562 104.828125 130.78125 104.734375 130.957031 104.644531 C 131.136719 104.558594 131.3125 104.457031 131.488281 104.367188 C 131.664062 104.273438 131.828125 104.164062 132.003906 104.066406 C 132.175781 103.964844 132.335938 103.847656 132.503906 103.742188 C 132.667969 103.628906 132.828125 103.515625 132.988281 103.398438 C 133.144531 103.28125 133.304688 103.164062 133.453125 103.035156 C 133.605469 102.914062 133.753906 102.785156 133.898438 102.652344 L 134.109375 102.449219 L 134.277344 102.28125 C 134.332031 102.167969 134.359375 102.042969 134.359375 101.90625 C 134.359375 101.757812 134.324219 101.597656 134.261719 101.4375 C 134.195312 101.28125 134.105469 101.128906 133.996094 100.988281 C 133.890625 100.847656 133.761719 100.722656 133.625 100.609375 C 133.351562 100.382812 133.015625 100.25 132.75 100.292969 C 132.683594 100.304688 132.621094 100.324219 132.566406 100.359375 C 132.503906 100.390625 132.449219 100.441406 132.410156 100.480469 C 132.402344 100.484375 132.382812 100.507812 132.367188 100.527344 L 132.320312 100.589844 L 132.304688 100.605469 L 132.304688 100.609375 L 132.300781 100.609375 C 132.328125 100.570312 132.324219 100.578125 132.320312 100.585938 C 132.316406 100.585938 132.320312 100.585938 132.320312 100.585938 L 132.3125 100.59375 L 132.242188 100.703125 C 132.179688 100.800781 132.101562 100.886719 132.03125 100.976562 C 131.878906 101.148438 131.714844 101.308594 131.535156 101.445312 C 131.355469 101.582031 131.171875 101.710938 130.976562 101.808594 C 130.585938 102.015625 130.179688 102.167969 129.765625 102.277344 C 129.554688 102.332031 129.347656 102.375 129.136719 102.410156 C 128.929688 102.445312 128.71875 102.476562 128.507812 102.492188 C 128.296875 102.507812 128.085938 102.519531 127.875 102.523438 C 127.664062 102.523438 127.457031 102.523438 127.246094 102.503906 C 127.660156 102.453125 128.070312 102.375 128.472656 102.28125 C 128.875 102.183594 129.269531 102.070312 129.648438 101.917969 C 130.027344 101.773438 130.394531 101.597656 130.71875 101.378906 C 130.882812 101.269531 131.039062 101.148438 131.183594 101.023438 C 131.324219 100.894531 131.453125 100.753906 131.566406 100.605469 C 131.617188 100.527344 131.675781 100.453125 131.71875 100.371094 L 131.75 100.3125 L 131.769531 100.28125 L 131.773438 100.273438 L 131.796875 100.238281 L 131.808594 100.21875 L 131.851562 100.152344 C 131.867188 100.132812 131.878906 100.113281 131.90625 100.082031 C 132.003906 99.964844 132.101562 99.871094 132.222656 99.796875 C 132.242188 99.789062 132.257812 99.777344 132.273438 99.765625 C 132.285156 99.703125 132.296875 99.636719 132.3125 99.566406 C 132.324219 99.492188 132.324219 99.410156 132.332031 99.324219 C 132.339844 99.15625 132.324219 98.972656 132.289062 98.785156 C 132.277344 98.6875 132.242188 98.59375 132.21875 98.496094 C 132.1875 98.402344 132.152344 98.304688 132.109375 98.210938 C 132.0625 98.117188 132.023438 98.019531 131.964844 97.929688 C 131.9375 97.882812 131.910156 97.832031 131.882812 97.789062 L 131.789062 97.652344 C 131.664062 97.472656 131.519531 97.304688 131.367188 97.140625 C 131.210938 96.980469 131.046875 96.824219 130.878906 96.6875 C 130.710938 96.542969 130.535156 96.414062 130.363281 96.292969 C 130.1875 96.171875 130.019531 96.058594 129.851562 95.960938 C 129.753906 95.898438 129.65625 95.84375 129.5625 95.789062 C 129.640625 96.023438 129.6875 96.265625 129.707031 96.503906 C 129.722656 96.667969 129.726562 96.828125 129.722656 96.992188 C 129.71875 97.074219 129.714844 97.152344 129.707031 97.234375 C 129.707031 97.273438 129.699219 97.3125 129.695312 97.351562 L 129.683594 97.457031 C 129.679688 97.488281 129.675781 97.511719 129.671875 97.535156 L 129.660156 97.601562 C 129.652344 97.644531 129.644531 97.6875 129.632812 97.726562 C 129.613281 97.8125 129.585938 97.890625 129.558594 97.96875 C 129.503906 98.128906 129.4375 98.28125 129.363281 98.425781 C 129.214844 98.714844 129.027344 98.980469 128.820312 99.222656 C 128.609375 99.464844 128.375 99.679688 128.121094 99.871094 C 127.871094 100.058594 127.609375 100.226562 127.335938 100.371094 C 127.0625 100.519531 126.78125 100.640625 126.492188 100.746094 L 126.277344 100.824219 L 126.0625 100.894531 C 125.917969 100.945312 125.773438 100.980469 125.625 101.023438 C 125.332031 101.097656 125.035156 101.15625 124.742188 101.203125 C 124.59375 101.230469 124.445312 101.253906 124.292969 101.269531 C 124.144531 101.289062 123.996094 101.304688 123.847656 101.3125 C 123.550781 101.34375 123.25 101.351562 122.953125 101.359375 C 123.246094 101.296875 123.535156 101.238281 123.824219 101.167969 C 123.96875 101.136719 124.113281 101.101562 124.253906 101.058594 C 124.398438 101.023438 124.539062 100.984375 124.679688 100.941406 C 124.960938 100.863281 125.242188 100.765625 125.515625 100.664062 C 125.648438 100.609375 125.785156 100.5625 125.917969 100.503906 L 126.117188 100.417969 L 126.316406 100.324219 C 126.574219 100.203125 126.820312 100.054688 127.066406 99.90625 C 127.308594 99.757812 127.535156 99.589844 127.746094 99.40625 C 127.957031 99.222656 128.148438 99.019531 128.320312 98.804688 C 128.488281 98.59375 128.636719 98.363281 128.746094 98.121094 C 128.804688 98 128.851562 97.878906 128.890625 97.75 C 128.90625 97.691406 128.925781 97.628906 128.9375 97.566406 C 128.945312 97.535156 128.949219 97.503906 128.953125 97.476562 L 128.957031 97.433594 L 128.960938 97.402344 L 128.976562 97.179688 C 128.980469 97.113281 128.984375 97.042969 128.984375 96.976562 C 128.988281 96.84375 128.980469 96.707031 128.964844 96.578125 C 128.9375 96.316406 128.871094 96.066406 128.773438 95.832031 C 128.671875 95.601562 128.527344 95.390625 128.351562 95.207031 C 128.003906 94.835938 127.519531 94.578125 126.996094 94.414062 C 126.734375 94.332031 126.460938 94.273438 126.1875 94.226562 C 126.179688 94.226562 126.175781 94.226562 126.167969 94.226562 C 126.183594 94.25 126.199219 94.28125 126.214844 94.308594 C 126.371094 94.628906 126.417969 94.992188 126.386719 95.324219 C 126.351562 95.65625 126.25 95.964844 126.121094 96.25 C 125.992188 96.535156 125.832031 96.792969 125.65625 97.039062 C 125.570312 97.164062 125.480469 97.285156 125.386719 97.402344 C 125.292969 97.515625 125.195312 97.632812 125.097656 97.742188 C 124.898438 97.960938 124.6875 98.171875 124.472656 98.375 C 124.261719 98.578125 124.035156 98.769531 123.808594 98.957031 C 123.679688 99.058594 123.550781 99.160156 123.414062 99.257812 C 123.535156 99.242188 123.652344 99.222656 123.769531 99.203125 C 123.890625 99.1875 124.007812 99.164062 124.125 99.136719 C 124.242188 99.113281 124.359375 99.089844 124.476562 99.0625 C 124.710938 99.023438 124.933594 98.949219 125.15625 98.886719 C 125.378906 98.832031 125.589844 98.75 125.796875 98.671875 C 126.007812 98.601562 126.195312 98.496094 126.386719 98.410156 C 126.484375 98.367188 126.570312 98.3125 126.65625 98.257812 C 126.742188 98.203125 126.832031 98.148438 126.914062 98.097656 C 126.992188 98.035156 127.066406 97.976562 127.140625 97.917969 C 127.179688 97.886719 127.214844 97.859375 127.253906 97.828125 C 127.289062 97.796875 127.316406 97.765625 127.347656 97.730469 C 127.414062 97.664062 127.476562 97.601562 127.539062 97.539062 C 127.589844 97.46875 127.640625 97.398438 127.691406 97.332031 C 127.714844 97.300781 127.742188 97.265625 127.765625 97.234375 C 127.785156 97.195312 127.804688 97.164062 127.824219 97.125 C 127.863281 97.058594 127.902344 96.992188 127.933594 96.925781 C 127.992188 96.785156 128.054688 96.660156 128.085938 96.53125 C 128.101562 96.46875 128.121094 96.410156 128.140625 96.351562 C 128.152344 96.296875 128.164062 96.238281 128.171875 96.183594 C 128.195312 96.078125 128.207031 95.984375 128.222656 95.898438 C 128.234375 95.816406 128.242188 95.742188 128.246094 95.6875 C 128.257812 95.570312 128.265625 95.507812 128.265625 95.507812 C 128.265625 95.507812 128.261719 95.570312 128.253906 95.6875 C 128.253906 95.746094 128.25 95.816406 128.238281 95.902344 C 128.234375 95.988281 128.226562 96.082031 128.203125 96.191406 C 128.195312 96.246094 128.1875 96.300781 128.179688 96.359375 C 128.164062 96.421875 128.148438 96.480469 128.132812 96.546875 C 128.105469 96.675781 128.050781 96.808594 128 96.953125 C 127.96875 97.023438 127.929688 97.09375 127.894531 97.167969 C 127.878906 97.203125 127.859375 97.242188 127.839844 97.277344 C 127.820312 97.316406 127.792969 97.347656 127.769531 97.386719 C 127.722656 97.457031 127.671875 97.53125 127.621094 97.605469 C 127.558594 97.671875 127.5 97.742188 127.433594 97.8125 C 127.402344 97.847656 127.375 97.886719 127.339844 97.921875 C 127.304688 97.953125 127.265625 97.984375 127.230469 98.019531 C 127.15625 98.082031 127.078125 98.148438 127 98.214844 C 126.917969 98.273438 126.832031 98.332031 126.742188 98.394531 C 126.65625 98.453125 126.570312 98.515625 126.472656 98.5625 C 126.28125 98.664062 126.089844 98.78125 125.875 98.863281 C 125.773438 98.90625 125.667969 98.953125 125.558594 99 C 125.453125 99.050781 125.339844 99.078125 125.230469 99.117188 C 125.003906 99.191406 124.777344 99.277344 124.542969 99.332031 C 124.425781 99.363281 124.308594 99.394531 124.1875 99.425781 C 124.070312 99.457031 123.949219 99.488281 123.828125 99.507812 C 123.585938 99.558594 123.339844 99.605469 123.09375 99.65625 C 122.847656 99.699219 122.601562 99.730469 122.355469 99.765625 C 122.109375 99.804688 121.863281 99.839844 121.617188 99.875 C 121.5 99.890625 121.378906 99.914062 121.261719 99.9375 C 121.140625 99.960938 121.019531 99.976562 120.902344 100.007812 C 120.433594 100.101562 119.980469 100.234375 119.558594 100.390625 C 119.136719 100.550781 118.742188 100.738281 118.402344 100.953125 C 118.058594 101.167969 117.765625 101.410156 117.53125 101.660156 C 117.296875 101.910156 117.117188 102.171875 116.996094 102.414062 C 116.871094 102.65625 116.796875 102.878906 116.75 103.066406 C 116.714844 103.226562 116.699219 103.359375 116.691406 103.453125 C 116.792969 103.46875 116.894531 103.484375 116.996094 103.496094 C 117.859375 103.597656 118.742188 103.589844 119.625 103.542969 C 120.507812 103.496094 121.386719 103.394531 122.257812 103.253906 C 123.132812 103.113281 124 102.921875 124.851562 102.683594 C 125.703125 102.441406 126.542969 102.144531 127.339844 101.761719 C 127.738281 101.574219 128.128906 101.359375 128.5 101.117188 C 128.867188 100.875 129.214844 100.597656 129.53125 100.285156 C 129.839844 99.96875 130.109375 99.613281 130.296875 99.210938 C 130.390625 99.011719 130.46875 98.804688 130.515625 98.585938 C 130.566406 98.367188 130.589844 98.148438 130.59375 97.925781 C 130.597656 98.148438 130.578125 98.371094 130.539062 98.589844 C 130.492188 98.808594 130.425781 99.023438 130.335938 99.230469 C 130.15625 99.644531 129.894531 100.015625 129.589844 100.34375 C 129.285156 100.671875 128.9375 100.964844 128.570312 101.21875 C 128.203125 101.480469 127.816406 101.710938 127.417969 101.914062 C 126.621094 102.328125 125.78125 102.652344 124.925781 102.925781 C 124.070312 103.199219 123.199219 103.414062 122.320312 103.589844 C 121.441406 103.761719 120.550781 103.890625 119.65625 103.96875 C 118.757812 104.042969 117.855469 104.082031 116.945312 104.003906 C 116.828125 103.992188 116.714844 103.980469 116.597656 103.964844 L 116.421875 103.9375 L 116.257812 103.910156 C 116.144531 103.890625 116.046875 103.871094 115.941406 103.855469 C 115.835938 103.847656 115.730469 103.828125 115.628906 103.824219 C 115.417969 103.8125 115.214844 103.820312 115.015625 103.84375 C 114.816406 103.871094 114.628906 103.921875 114.457031 104 C 114.109375 104.15625 113.847656 104.433594 113.6875 104.78125 C 113.605469 104.957031 113.550781 105.144531 113.511719 105.339844 C 113.496094 105.417969 113.488281 105.496094 113.480469 105.578125 C 113.675781 105.597656 114.03125 105.636719 114.476562 105.683594 C 115.183594 105.757812 116.121094 105.847656 117.0625 105.917969 C 117.53125 105.953125 118 105.976562 118.445312 106 C 118.664062 106.003906 118.878906 106.011719 119.082031 106.015625 C 119.28125 106.015625 119.472656 106.023438 119.652344 106.019531 C 119.828125 106.011719 119.992188 106.015625 120.132812 106.003906 C 120.277344 105.996094 120.402344 105.992188 120.503906 105.980469 C 120.707031 105.953125 120.828125 105.9375 120.828125 105.9375 C 120.828125 105.9375 120.710938 105.964844 120.511719 106.011719 C 120.410156 106.035156 120.285156 106.050781 120.140625 106.074219 C 119.996094 106.101562 119.835938 106.113281 119.660156 106.136719 C 119.484375 106.160156 119.289062 106.171875 119.085938 106.195312 C 118.882812 106.210938 118.667969 106.222656 118.445312 106.238281 C 118 106.265625 117.527344 106.285156 117.054688 106.296875 C 116.105469 106.324219 115.15625 106.328125 114.441406 106.328125 C 113.734375 106.320312 113.257812 106.320312 113.257812 106.320312 C 113.226562 106.316406 113.191406 106.3125 113.164062 106.304688 L 113.144531 106.316406 C 113.101562 106.335938 113.058594 106.355469 113.027344 106.382812 L 112.925781 106.460938 C 112.886719 106.484375 112.867188 106.523438 112.835938 106.550781 C 112.804688 106.582031 112.777344 106.609375 112.757812 106.644531 C 112.738281 106.679688 112.710938 106.710938 112.695312 106.746094 C 112.679688 106.78125 112.660156 106.820312 112.644531 106.855469 C 112.632812 106.894531 112.625 106.933594 112.613281 106.976562 C 112.597656 107.011719 112.597656 107.058594 112.589844 107.097656 C 112.582031 107.140625 112.582031 107.183594 112.582031 107.226562 C 112.578125 107.273438 112.582031 107.316406 112.585938 107.363281 C 112.589844 107.40625 112.589844 107.453125 112.601562 107.5 " fill-opacity="1" fill-rule="nonzero"/><path fill="#424242" d="M 134.3125 102.246094 L 134.277344 102.28125 C 134.269531 102.292969 134.265625 102.304688 134.257812 102.316406 L 134.3125 102.246094 " fill-opacity="1" fill-rule="nonzero"/><path fill="#424242" d="M 112.816406 114.121094 C 115.925781 114.664062 120.0625 114.960938 124.464844 114.960938 C 135.117188 114.960938 140.34375 113.4375 140.660156 112.355469 C 140.660156 112.347656 140.664062 112.339844 140.667969 112.332031 C 140.671875 112.328125 140.671875 112.320312 140.675781 112.308594 C 141.359375 110.738281 140.875 110.496094 140.261719 110.191406 C 140.179688 110.152344 140.09375 110.109375 140.011719 110.0625 C 139.996094 110.074219 139.980469 110.085938 139.960938 110.097656 C 139.894531 110.140625 139.824219 110.195312 139.738281 110.25 C 139.652344 110.300781 139.558594 110.363281 139.457031 110.425781 C 139.355469 110.484375 139.238281 110.550781 139.121094 110.621094 C 139 110.691406 138.871094 110.757812 138.734375 110.828125 C 138.597656 110.894531 138.453125 110.976562 138.300781 111.042969 C 138.144531 111.113281 137.988281 111.1875 137.820312 111.261719 C 137.65625 111.335938 137.480469 111.402344 137.300781 111.476562 C 137.214844 111.511719 137.125 111.550781 137.03125 111.585938 C 136.9375 111.625 136.84375 111.65625 136.75 111.691406 C 136.558594 111.757812 136.367188 111.824219 136.167969 111.894531 C 135.96875 111.960938 135.765625 112.019531 135.5625 112.082031 C 135.351562 112.144531 135.148438 112.214844 134.933594 112.261719 C 134.722656 112.316406 134.507812 112.371094 134.292969 112.421875 C 134.183594 112.453125 134.078125 112.480469 133.96875 112.503906 L 133.644531 112.570312 C 133.207031 112.652344 132.777344 112.753906 132.339844 112.8125 C 132.125 112.84375 131.910156 112.878906 131.703125 112.910156 C 131.59375 112.925781 131.488281 112.941406 131.386719 112.957031 C 131.28125 112.96875 131.175781 112.980469 131.074219 112.992188 C 130.660156 113.03125 130.261719 113.078125 129.882812 113.113281 C 129.503906 113.136719 129.148438 113.160156 128.816406 113.175781 C 128.648438 113.1875 128.492188 113.195312 128.339844 113.203125 C 128.191406 113.207031 128.046875 113.207031 127.914062 113.210938 C 127.644531 113.214844 127.410156 113.21875 127.21875 113.222656 C 126.832031 113.226562 126.609375 113.230469 126.609375 113.230469 C 126.609375 113.230469 126.832031 113.214844 127.214844 113.1875 C 127.40625 113.175781 127.640625 113.160156 127.910156 113.140625 C 128.042969 113.132812 128.183594 113.121094 128.335938 113.113281 C 128.484375 113.09375 128.644531 113.078125 128.804688 113.058594 C 129.132812 113.019531 129.488281 112.980469 129.867188 112.9375 C 130.238281 112.882812 130.632812 112.816406 131.039062 112.75 C 131.140625 112.734375 131.242188 112.71875 131.34375 112.703125 C 131.449219 112.683594 131.550781 112.660156 131.65625 112.636719 C 131.863281 112.59375 132.070312 112.550781 132.28125 112.507812 C 132.707031 112.425781 133.128906 112.304688 133.554688 112.199219 L 133.871094 112.117188 C 133.976562 112.085938 134.078125 112.050781 134.183594 112.019531 C 134.390625 111.957031 134.597656 111.890625 134.804688 111.828125 C 135.011719 111.769531 135.207031 111.6875 135.40625 111.621094 C 135.605469 111.546875 135.800781 111.480469 135.992188 111.40625 C 136.179688 111.328125 136.363281 111.25 136.546875 111.175781 C 136.632812 111.136719 136.726562 111.101562 136.8125 111.0625 C 136.898438 111.019531 136.984375 110.980469 137.070312 110.941406 C 137.238281 110.859375 137.402344 110.785156 137.558594 110.707031 C 137.714844 110.625 137.863281 110.546875 138.007812 110.46875 C 138.152344 110.398438 138.28125 110.3125 138.410156 110.242188 C 138.535156 110.164062 138.660156 110.097656 138.765625 110.023438 C 138.875 109.953125 138.976562 109.886719 139.070312 109.828125 C 139.164062 109.761719 139.246094 109.703125 139.320312 109.648438 C 139.382812 109.605469 139.433594 109.566406 139.476562 109.53125 C 139.441406 109.4375 139.414062 109.328125 139.414062 109.207031 L 139.414062 109.164062 C 139.464844 108.652344 139.375 108.292969 139.148438 108.085938 C 138.875 107.839844 138.445312 107.851562 138.265625 107.867188 C 138.253906 107.890625 138.246094 107.910156 138.238281 107.925781 C 138.140625 108.105469 138.011719 108.253906 137.878906 108.378906 C 137.601562 108.628906 137.300781 108.800781 136.996094 108.957031 C 136.382812 109.261719 135.746094 109.472656 135.105469 109.660156 C 134.460938 109.84375 133.8125 109.988281 133.164062 110.113281 C 133.105469 110.128906 133.046875 110.136719 132.988281 110.144531 L 132.988281 110.148438 C 132.980469 110.148438 132.972656 110.148438 132.964844 110.152344 C 132.417969 110.25 131.875 110.335938 131.324219 110.410156 C 130.667969 110.5 130.011719 110.570312 129.351562 110.625 C 129.023438 110.652344 128.695312 110.675781 128.363281 110.6875 C 128.035156 110.703125 127.703125 110.710938 127.375 110.703125 C 128.03125 110.675781 128.6875 110.589844 129.339844 110.5 C 129.992188 110.410156 130.640625 110.304688 131.289062 110.179688 C 131.851562 110.078125 132.410156 109.960938 132.960938 109.832031 C 133.644531 109.671875 134.324219 109.484375 134.984375 109.273438 C 135.605469 109.070312 136.21875 108.839844 136.773438 108.539062 C 137.050781 108.386719 137.316406 108.214844 137.527344 108.007812 C 137.628906 107.910156 137.710938 107.800781 137.765625 107.691406 C 137.769531 107.691406 137.769531 107.6875 137.769531 107.6875 C 137.785156 107.660156 137.792969 107.628906 137.804688 107.605469 C 137.808594 107.59375 137.8125 107.582031 137.816406 107.570312 L 137.820312 107.554688 L 137.828125 107.527344 L 137.835938 107.476562 L 137.835938 107.429688 L 137.84375 107.3125 C 137.84375 107.285156 137.84375 107.253906 137.84375 107.222656 C 137.851562 106.941406 137.839844 106.664062 137.777344 106.410156 C 137.710938 106.128906 137.574219 105.894531 137.378906 105.753906 C 137.183594 105.613281 136.910156 105.570312 136.625 105.59375 C 136.539062 105.601562 136.453125 105.613281 136.367188 105.632812 C 136.355469 105.632812 136.339844 105.636719 136.324219 105.640625 C 136.28125 105.652344 136.238281 105.660156 136.195312 105.671875 C 136.054688 105.707031 135.90625 105.757812 135.785156 105.8125 C 135.375 106.035156 134.972656 106.167969 134.566406 106.308594 C 134.152344 106.449219 133.738281 106.574219 133.328125 106.691406 C 132.496094 106.929688 131.667969 107.144531 130.832031 107.34375 L 130.203125 107.488281 L 130.164062 107.5 L 130.117188 107.511719 L 130.039062 107.523438 L 129.878906 107.554688 L 129.5625 107.613281 C 129.136719 107.695312 128.714844 107.761719 128.285156 107.832031 C 127.863281 107.898438 127.433594 107.953125 127.007812 108.007812 C 126.582031 108.058594 126.15625 108.113281 125.726562 108.152344 C 124.867188 108.242188 124.011719 108.300781 123.152344 108.34375 C 122.292969 108.386719 121.433594 108.402344 120.578125 108.410156 C 119.71875 108.417969 118.863281 108.410156 118.003906 108.402344 C 117.152344 108.394531 116.296875 108.378906 115.449219 108.375 C 114.695312 108.375 113.945312 108.390625 113.203125 108.453125 C 113.109375 108.460938 113.019531 108.464844 112.925781 108.472656 C 112.832031 108.484375 112.738281 108.496094 112.644531 108.507812 C 112.527344 108.523438 112.40625 108.539062 112.289062 108.558594 C 112.09375 108.59375 111.898438 108.628906 111.710938 108.679688 C 111.4375 108.753906 111.171875 108.839844 110.921875 108.953125 C 110.859375 108.984375 110.796875 109.011719 110.738281 109.046875 C 110.714844 109.058594 110.6875 109.074219 110.660156 109.089844 C 110.644531 109.097656 110.628906 109.105469 110.613281 109.113281 L 110.546875 109.148438 L 110.492188 109.191406 L 110.375 109.273438 C 110.292969 109.328125 110.230469 109.398438 110.160156 109.460938 C 110.125 109.492188 110.089844 109.527344 110.058594 109.558594 L 109.976562 109.660156 L 109.890625 109.765625 C 109.859375 109.800781 109.835938 109.851562 109.804688 109.898438 C 109.59375 110.226562 109.472656 110.582031 109.566406 110.878906 C 109.574219 110.90625 109.582031 110.929688 109.597656 110.957031 C 109.632812 111.046875 109.6875 111.132812 109.757812 111.210938 C 109.898438 111.371094 110.085938 111.503906 110.296875 111.617188 C 110.644531 111.800781 111.039062 111.933594 111.4375 112.039062 C 112.246094 112.246094 113.085938 112.359375 113.929688 112.4375 C 114.773438 112.511719 115.625 112.554688 116.476562 112.570312 C 117.328125 112.585938 118.183594 112.582031 119.035156 112.566406 C 119.886719 112.542969 120.742188 112.515625 121.59375 112.464844 C 120.746094 112.570312 119.894531 112.660156 119.042969 112.722656 C 118.191406 112.789062 117.335938 112.835938 116.476562 112.855469 C 115.621094 112.875 114.761719 112.875 113.902344 112.828125 C 113.042969 112.78125 112.179688 112.699219 111.324219 112.507812 C 110.894531 112.410156 110.46875 112.285156 110.054688 112.082031 C 109.851562 111.976562 109.644531 111.855469 109.464844 111.6875 C 109.453125 111.679688 109.445312 111.667969 109.4375 111.660156 C 108.320312 112.101562 108.285156 112.425781 108.285156 112.460938 C 108.285156 112.765625 109.230469 113.5 112.816406 114.121094 " fill-opacity="1" fill-rule="nonzero"/><path fill="#424242" d="M 141.328125 114.816406 C 141.339844 114.859375 141.347656 114.90625 141.339844 114.953125 L 135.703125 150.488281 C 135.683594 150.722656 135.453125 153.050781 133.65625 153.613281 C 132.132812 154.3125 126.976562 154.699219 122.6875 154.699219 C 120.289062 154.699219 118.164062 154.578125 117.09375 154.324219 C 114.289062 153.65625 113.5 151.667969 113.46875 151.585938 C 113.460938 151.5625 113.457031 151.542969 113.453125 151.519531 L 107.589844 114.953125 C 107.582031 114.898438 107.589844 114.847656 107.605469 114.796875 C 106.753906 114.335938 106.273438 113.8125 106.273438 113.230469 C 106.273438 112.484375 107.039062 111.8125 108.546875 111.230469 C 108.691406 111.152344 108.847656 111.078125 109.019531 111.003906 C 108.949219 110.757812 108.957031 110.492188 109.015625 110.261719 C 109.042969 110.140625 109.082031 110.019531 109.132812 109.910156 L 109.167969 109.828125 L 109.175781 109.816406 L 109.1875 109.789062 L 109.195312 109.773438 L 109.21875 109.738281 L 109.296875 109.597656 C 109.324219 109.550781 109.34375 109.507812 109.378906 109.457031 L 109.492188 109.308594 L 109.609375 109.160156 C 109.648438 109.113281 109.691406 109.074219 109.730469 109.03125 C 109.816406 108.945312 109.898438 108.859375 109.996094 108.792969 L 110.136719 108.683594 L 110.210938 108.628906 L 110.285156 108.585938 C 110.324219 108.558594 110.367188 108.535156 110.410156 108.511719 L 105.144531 96.425781 C 104.972656 96.035156 104.964844 95.605469 105.121094 95.210938 C 105.277344 94.8125 105.578125 94.5 105.964844 94.332031 C 106.355469 94.164062 106.785156 94.15625 107.179688 94.3125 C 107.578125 94.464844 107.890625 94.765625 108.058594 95.15625 L 112.6875 105.78125 C 112.722656 105.761719 112.761719 105.742188 112.796875 105.726562 C 112.800781 105.675781 112.800781 105.621094 112.808594 105.574219 C 112.820312 105.449219 112.84375 105.328125 112.867188 105.207031 C 112.921875 104.96875 113 104.730469 113.113281 104.503906 C 113.230469 104.277344 113.382812 104.0625 113.570312 103.882812 C 113.757812 103.699219 113.980469 103.558594 114.21875 103.457031 C 114.453125 103.359375 114.703125 103.300781 114.949219 103.273438 C 115.191406 103.253906 115.433594 103.253906 115.667969 103.277344 C 115.765625 103.28125 115.859375 103.296875 115.953125 103.3125 C 115.96875 103.191406 115.996094 103.046875 116.046875 102.878906 C 116.113281 102.644531 116.222656 102.371094 116.390625 102.078125 C 116.554688 101.789062 116.785156 101.492188 117.070312 101.210938 C 117.359375 100.929688 117.710938 100.667969 118.101562 100.449219 C 118.496094 100.226562 118.929688 100.042969 119.386719 99.898438 C 119.570312 99.839844 119.753906 99.792969 119.9375 99.742188 C 120.027344 99.605469 120.117188 99.472656 120.203125 99.332031 C 120.363281 99.082031 120.515625 98.828125 120.660156 98.570312 C 120.957031 98.054688 121.222656 97.523438 121.453125 96.988281 C 121.679688 96.449219 121.867188 95.890625 121.960938 95.335938 C 122.003906 95.058594 122.019531 94.78125 121.988281 94.523438 C 121.957031 94.261719 121.875 94.023438 121.734375 93.835938 L 121.214844 93.144531 L 122.089844 93.328125 C 122.234375 93.359375 122.351562 93.390625 122.472656 93.425781 C 122.597656 93.464844 122.714844 93.507812 122.835938 93.554688 C 123.074219 93.648438 123.308594 93.761719 123.527344 93.902344 C 123.636719 93.96875 123.746094 94.042969 123.847656 94.125 C 123.949219 94.207031 124.050781 94.292969 124.144531 94.390625 C 124.328125 94.574219 124.496094 94.785156 124.632812 95.015625 C 124.769531 95.246094 124.875 95.496094 124.941406 95.753906 C 125.011719 96.007812 125.039062 96.269531 125.039062 96.527344 C 125.039062 96.65625 125.027344 96.785156 125.011719 96.910156 C 124.996094 97.035156 124.976562 97.160156 124.941406 97.28125 C 124.9375 97.304688 124.929688 97.328125 124.925781 97.351562 C 125.050781 97.171875 125.167969 96.988281 125.277344 96.796875 C 125.417969 96.554688 125.539062 96.300781 125.632812 96.046875 C 125.726562 95.792969 125.789062 95.535156 125.796875 95.285156 C 125.804688 95.035156 125.753906 94.804688 125.640625 94.605469 C 125.535156 94.402344 125.359375 94.234375 125.152344 94.089844 L 124.320312 93.515625 L 125.335938 93.472656 C 125.511719 93.464844 125.65625 93.46875 125.816406 93.476562 C 125.976562 93.484375 126.128906 93.496094 126.285156 93.519531 C 126.597656 93.554688 126.90625 93.617188 127.214844 93.710938 C 127.515625 93.800781 127.816406 93.921875 128.105469 94.078125 C 128.347656 94.214844 128.582031 94.378906 128.789062 94.574219 C 128.839844 94.601562 128.902344 94.632812 128.980469 94.679688 C 129.164062 94.785156 129.417969 94.9375 129.714844 95.140625 C 129.863281 95.242188 130.019531 95.351562 130.183594 95.476562 C 130.347656 95.597656 130.511719 95.734375 130.683594 95.878906 C 130.851562 96.027344 131.023438 96.183594 131.1875 96.355469 C 131.351562 96.519531 131.507812 96.703125 131.65625 96.890625 C 131.800781 97.082031 131.941406 97.28125 132.050781 97.488281 C 132.082031 97.542969 132.109375 97.59375 132.136719 97.644531 C 132.164062 97.699219 132.1875 97.75 132.210938 97.804688 C 132.261719 97.90625 132.292969 98.019531 132.335938 98.125 C 132.367188 98.234375 132.398438 98.339844 132.421875 98.445312 C 132.4375 98.554688 132.460938 98.65625 132.464844 98.757812 C 132.484375 98.964844 132.476562 99.160156 132.449219 99.335938 C 132.433594 99.421875 132.425781 99.507812 132.402344 99.585938 C 132.390625 99.632812 132.375 99.675781 132.363281 99.722656 C 132.445312 99.683594 132.53125 99.65625 132.617188 99.636719 C 132.898438 99.574219 133.171875 99.613281 133.414062 99.691406 C 133.65625 99.773438 133.871094 99.890625 134.0625 100.035156 C 134.257812 100.175781 134.425781 100.347656 134.578125 100.53125 C 134.726562 100.71875 134.851562 100.925781 134.949219 101.152344 C 135.046875 101.378906 135.109375 101.632812 135.117188 101.898438 C 135.117188 101.90625 135.113281 101.910156 135.113281 101.917969 C 135.152344 102.042969 135.40625 102.742188 136.296875 103.332031 C 136.808594 103.667969 136.9375 104.0625 136.960938 104.335938 C 136.976562 104.574219 136.917969 104.792969 136.832031 104.984375 C 136.941406 104.988281 137.050781 105.003906 137.164062 105.027344 C 137.355469 105.070312 137.550781 105.152344 137.722656 105.277344 C 138.0625 105.53125 138.246094 105.921875 138.320312 106.28125 C 138.382812 106.558594 138.398438 106.832031 138.390625 107.097656 C 138.738281 107.09375 139.257812 107.160156 139.660156 107.519531 C 140.070312 107.890625 140.242188 108.457031 140.175781 109.210938 C 140.179688 109.214844 140.179688 109.222656 140.183594 109.230469 C 140.203125 109.273438 140.253906 109.320312 140.351562 109.378906 C 140.414062 109.414062 140.496094 109.457031 140.601562 109.507812 C 141.324219 109.867188 142.035156 110.378906 141.65625 111.8125 C 142.386719 112.234375 142.699219 112.664062 142.699219 113.230469 C 142.699219 113.820312 142.199219 114.351562 141.328125 114.816406 Z M 165.371094 111.03125 L 136.746094 82.402344 C 129.65625 75.3125 118.054688 75.3125 110.964844 82.402344 L 82.335938 111.03125 C 75.246094 118.121094 75.246094 129.722656 82.335938 136.8125 L 110.964844 165.4375 C 118.054688 172.527344 129.65625 172.527344 136.746094 165.4375 L 165.371094 136.8125 C 172.460938 129.722656 172.460938 118.121094 165.371094 111.03125 " fill-opacity="1" fill-rule="nonzero"/><path fill="#424242" d="M 141.453125 112.429688 C 141.429688 112.488281 141.40625 112.542969 141.378906 112.605469 C 141.066406 113.566406 139.277344 114.339844 136.058594 114.902344 C 133.019531 115.429688 128.902344 115.722656 124.464844 115.722656 C 120.019531 115.722656 115.835938 115.421875 112.6875 114.875 C 111.140625 114.605469 109.917969 114.289062 109.058594 113.9375 C 108.023438 113.511719 107.523438 113.027344 107.523438 112.460938 C 107.523438 112.457031 107.523438 112.449219 107.523438 112.4375 C 106.992188 112.800781 106.90625 113.085938 106.90625 113.230469 C 106.90625 113.832031 108.21875 114.746094 111.894531 115.496094 C 115.253906 116.179688 119.726562 116.558594 124.484375 116.558594 C 129.246094 116.558594 133.71875 116.179688 137.074219 115.496094 C 140.753906 114.746094 142.0625 113.832031 142.0625 113.230469 C 142.0625 113.011719 141.984375 112.761719 141.453125 112.429688 " fill-opacity="1" fill-rule="nonzero"/><path fill="#424242" d="M 140.664062 115.128906 C 140.054688 115.378906 139.328125 115.613281 138.511719 115.820312 L 133.167969 150.492188 L 137.851562 115.976562 C 134.316406 116.777344 129.320312 117.195312 124.484375 117.195312 C 119.523438 117.195312 114.382812 116.753906 110.835938 115.914062 C 110.835938 115.914062 110.832031 115.914062 110.832031 115.914062 L 115.519531 150.46875 L 110.171875 115.75 C 110.171875 115.746094 110.171875 115.746094 110.171875 115.746094 C 109.449219 115.550781 108.800781 115.339844 108.257812 115.109375 L 108.257812 115.113281 C 108.253906 115.109375 108.253906 115.109375 108.25 115.109375 L 114.066406 151.382812 C 114.167969 151.613281 114.910156 153.152344 117.234375 153.707031 C 119.816406 154.320312 129.203125 154.113281 132.566406 153.296875 C 132.914062 153.214844 133.199219 153.125 133.40625 153.027344 C 133.421875 153.019531 133.433594 153.015625 133.449219 153.007812 C 134.902344 152.570312 135.066406 150.453125 135.070312 150.429688 C 135.070312 150.421875 135.070312 150.414062 135.070312 150.402344 L 140.667969 115.125 C 140.667969 115.128906 140.664062 115.128906 140.664062 115.128906 " fill-opacity="1" fill-rule="nonzero"/><g fill="#424242" fill-opacity="1"><g transform="translate(235.109082, 124.551907)"><g><path d="M 4.453125 -27.390625 L 7.359375 -27.390625 L 7.359375 0 L 4.453125 0 Z M 4.453125 -27.390625 "/></g></g></g><g fill="#424242" fill-opacity="1"><g transform="translate(246.917971, 124.551907)"><g><path d="M 16.359375 0.234375 C 13.640625 0.234375 11.191406 -0.363281 9.015625 -1.5625 C 6.835938 -2.757812 5.128906 -4.421875 3.890625 -6.546875 C 2.648438 -8.671875 2.03125 -11.050781 2.03125 -13.6875 C 2.03125 -16.320312 2.648438 -18.703125 3.890625 -20.828125 C 5.128906 -22.953125 6.84375 -24.613281 9.03125 -25.8125 C 11.226562 -27.019531 13.679688 -27.625 16.390625 -27.625 C 18.421875 -27.625 20.296875 -27.285156 22.015625 -26.609375 C 23.742188 -25.929688 25.207031 -24.9375 26.40625 -23.625 L 24.578125 -21.796875 C 22.429688 -23.960938 19.726562 -25.046875 16.46875 -25.046875 C 14.300781 -25.046875 12.332031 -24.546875 10.5625 -23.546875 C 8.789062 -22.554688 7.398438 -21.203125 6.390625 -19.484375 C 5.390625 -17.765625 4.890625 -15.832031 4.890625 -13.6875 C 4.890625 -11.550781 5.390625 -9.625 6.390625 -7.90625 C 7.398438 -6.1875 8.789062 -4.828125 10.5625 -3.828125 C 12.332031 -2.835938 14.300781 -2.34375 16.46875 -2.34375 C 19.757812 -2.34375 22.460938 -3.441406 24.578125 -5.640625 L 26.40625 -3.796875 C 25.207031 -2.492188 23.738281 -1.492188 22 -0.796875 C 20.269531 -0.109375 18.390625 0.234375 16.359375 0.234375 Z M 16.359375 0.234375 "/></g></g></g><g fill="#424242" fill-opacity="1"><g transform="translate(275.032524, 124.551907)"><g><path d="M 23.828125 -2.5 L 23.828125 0 L 4.453125 0 L 4.453125 -27.390625 L 23.234375 -27.390625 L 23.234375 -24.890625 L 7.359375 -24.890625 L 7.359375 -15.140625 L 21.515625 -15.140625 L 21.515625 -12.671875 L 7.359375 -12.671875 L 7.359375 -2.5 Z M 23.828125 -2.5 "/></g></g></g><g fill="#424242" fill-opacity="1"><g transform="translate(301.19195, 124.551907)"><g/></g></g><g fill="#424242" fill-opacity="1"><g transform="translate(311.436744, 124.551907)"><g><path d="M 32.90625 -27.390625 L 32.90625 0 L 30.125 0 L 30.125 -21.90625 L 19.359375 -3.484375 L 18 -3.484375 L 7.234375 -21.796875 L 7.234375 0 L 4.453125 0 L 4.453125 -27.390625 L 6.84375 -27.390625 L 18.734375 -7.078125 L 30.515625 -27.390625 Z M 32.90625 -27.390625 "/></g></g></g><g fill="#424242" fill-opacity="1"><g transform="translate(348.779438, 124.551907)"><g><path d="M 23.828125 -2.5 L 23.828125 0 L 4.453125 0 L 4.453125 -27.390625 L 23.234375 -27.390625 L 23.234375 -24.890625 L 7.359375 -24.890625 L 7.359375 -15.140625 L 21.515625 -15.140625 L 21.515625 -12.671875 L 7.359375 -12.671875 L 7.359375 -2.5 Z M 23.828125 -2.5 "/></g></g></g><g fill="#424242" fill-opacity="1"><g transform="translate(193.596466, 150.524522)"><g><path d="M 0.667969 0 L 2.984375 0 L 2.984375 -0.285156 C 2.300781 -0.285156 2.148438 -0.617188 2.148438 -1.617188 L 2.148438 -9.433594 L 6.816406 0 L 8.117188 0 L 12.78125 -9.433594 L 12.78125 -1.617188 C 12.78125 -0.617188 12.632812 -0.285156 11.949219 -0.285156 L 11.949219 0 L 14.78125 0 L 14.78125 -0.285156 C 14.082031 -0.285156 13.949219 -0.617188 13.949219 -1.617188 L 13.949219 -9.382812 C 13.949219 -10.382812 14.082031 -10.714844 14.78125 -10.714844 L 14.78125 -11 L 13.734375 -11 C 13.050781 -10.984375 12.800781 -10.917969 12.382812 -10.050781 L 7.765625 -0.714844 L 3.148438 -10.050781 C 2.714844 -10.917969 2.5 -10.984375 1.699219 -11 L 0.667969 -11 L 0.667969 -10.714844 C 1.351562 -10.714844 1.5 -10.382812 1.5 -9.382812 L 1.5 -1.617188 C 1.5 -0.617188 1.351562 -0.285156 0.667969 -0.285156 Z M 0.667969 0 "/></g></g></g><g fill="#424242" fill-opacity="1"><g transform="translate(216.334545, 150.524522)"><g><path d="M 0.667969 0 L 3.5 0 L 3.5 -0.285156 C 2.816406 -0.285156 2.667969 -0.617188 2.667969 -1.617188 L 2.667969 -9.382812 C 2.667969 -10.382812 2.816406 -10.714844 3.5 -10.714844 L 3.5 -11 L 0.667969 -11 L 0.667969 -10.714844 C 1.351562 -10.714844 1.5 -10.382812 1.5 -9.382812 L 1.5 -1.617188 C 1.5 -0.617188 1.351562 -0.285156 0.667969 -0.285156 Z M 0.667969 0 "/></g></g></g><g fill="#424242" fill-opacity="1"><g transform="translate(227.789792, 150.524522)"><g><path d="M 0.667969 0 L 2.949219 0 L 2.949219 -0.285156 C 2.265625 -0.285156 2.117188 -0.617188 2.117188 -1.617188 L 2.117188 -9.78125 L 8.683594 -0.785156 C 9.214844 -0.0507812 9.449219 0 10.449219 0 L 10.449219 -9.382812 C 10.449219 -10.382812 10.582031 -10.714844 11.28125 -10.714844 L 11.28125 -11 L 9 -11 L 9 -10.714844 C 9.683594 -10.714844 9.832031 -10.382812 9.832031 -9.382812 L 9.832031 -1.214844 L 3.25 -10.214844 C 2.78125 -10.867188 2.566406 -10.984375 1.699219 -11 L 0.667969 -11 L 0.667969 -10.714844 C 1.351562 -10.714844 1.5 -10.382812 1.5 -9.382812 L 1.5 -1.617188 C 1.5 -0.617188 1.351562 -0.285156 0.667969 -0.285156 Z M 0.667969 0 "/></g></g></g><g fill="#424242" fill-opacity="1"><g transform="translate(247.028037, 150.524522)"><g><path d="M 0.667969 0 L 3.5 0 L 3.5 -0.285156 C 2.816406 -0.285156 2.667969 -0.617188 2.667969 -1.617188 L 2.667969 -9.382812 C 2.667969 -10.382812 2.816406 -10.714844 3.5 -10.714844 L 3.5 -11 L 0.667969 -11 L 0.667969 -10.714844 C 1.351562 -10.714844 1.5 -10.382812 1.5 -9.382812 L 1.5 -1.617188 C 1.5 -0.617188 1.351562 -0.285156 0.667969 -0.285156 Z M 0.667969 0 "/></g></g></g><g fill="#424242" fill-opacity="1"><g transform="translate(258.483284, 150.524522)"><g><path d="M 0.667969 0 L 2.984375 0 L 2.984375 -0.285156 C 2.300781 -0.285156 2.148438 -0.617188 2.148438 -1.617188 L 2.148438 -9.433594 L 6.816406 0 L 8.117188 0 L 12.78125 -9.433594 L 12.78125 -1.617188 C 12.78125 -0.617188 12.632812 -0.285156 11.949219 -0.285156 L 11.949219 0 L 14.78125 0 L 14.78125 -0.285156 C 14.082031 -0.285156 13.949219 -0.617188 13.949219 -1.617188 L 13.949219 -9.382812 C 13.949219 -10.382812 14.082031 -10.714844 14.78125 -10.714844 L 14.78125 -11 L 13.734375 -11 C 13.050781 -10.984375 12.800781 -10.917969 12.382812 -10.050781 L 7.765625 -0.714844 L 3.148438 -10.050781 C 2.714844 -10.917969 2.5 -10.984375 1.699219 -11 L 0.667969 -11 L 0.667969 -10.714844 C 1.351562 -10.714844 1.5 -10.382812 1.5 -9.382812 L 1.5 -1.617188 C 1.5 -0.617188 1.351562 -0.285156 0.667969 -0.285156 Z M 0.667969 0 "/></g></g></g><g fill="#424242" fill-opacity="1"><g transform="translate(281.221363, 150.524522)"><g><path d="M 0.332031 0 L 3.617188 0 L 3.617188 -0.285156 C 2.25 -0.285156 2.183594 -0.566406 2.582031 -1.484375 L 4.148438 -5.214844 L 8.367188 -5.214844 L 9.933594 -1.484375 C 10.316406 -0.566406 10.25 -0.285156 8.882812 -0.285156 L 8.882812 0 L 12.78125 0 L 12.78125 -0.285156 C 11.984375 -0.285156 11.582031 -0.566406 11.199219 -1.484375 L 7.183594 -11 L 4.550781 -11 L 4.550781 -10.714844 C 5.582031 -10.714844 5.699219 -10.484375 5.398438 -9.714844 L 1.917969 -1.484375 C 1.535156 -0.566406 1.132812 -0.285156 0.332031 -0.285156 Z M 4.417969 -5.816406 L 6.265625 -10.214844 L 8.101562 -5.816406 Z M 4.417969 -5.816406 "/></g></g></g><g fill="#424242" fill-opacity="1"><g transform="translate(301.626219, 150.524522)"><g><path d="M 0.667969 0 L 8.265625 0 L 8.300781 -0.199219 L 8.582031 -2.265625 L 8.316406 -2.300781 C 8.101562 -0.933594 7.734375 -0.617188 6.734375 -0.617188 L 2.667969 -0.617188 L 2.667969 -9.382812 C 2.667969 -10.382812 2.816406 -10.714844 3.5 -10.714844 L 3.5 -11 L 0.667969 -11 L 0.667969 -10.714844 C 1.351562 -10.714844 1.5 -10.382812 1.5 -9.382812 L 1.5 -1.617188 C 1.5 -0.617188 1.351562 -0.285156 0.667969 -0.285156 Z M 0.667969 0 "/></g></g></g><g fill="#424242" fill-opacity="1"><g transform="translate(317.99792, 150.524522)"><g><path d="M 0.667969 0 L 3.5 0 L 3.5 -0.285156 C 2.816406 -0.285156 2.667969 -0.617188 2.667969 -1.617188 L 2.667969 -9.382812 C 2.667969 -10.382812 2.816406 -10.714844 3.5 -10.714844 L 3.5 -11 L 0.667969 -11 L 0.667969 -10.714844 C 1.351562 -10.714844 1.5 -10.382812 1.5 -9.382812 L 1.5 -1.617188 C 1.5 -0.617188 1.351562 -0.285156 0.667969 -0.285156 Z M 0.667969 0 "/></g></g></g><g fill="#424242" fill-opacity="1"><g transform="translate(329.453168, 150.524522)"><g><path d="M 5.300781 0.167969 C 7.464844 0.167969 9.300781 -0.601562 9.300781 -2.734375 C 9.300781 -4.917969 7.5 -5.382812 5.132812 -6.25 C 3.898438 -6.699219 2.234375 -7.167969 2.234375 -8.617188 C 2.234375 -9.882812 3.332031 -10.550781 5 -10.550781 C 6.984375 -10.550781 8.347656 -9.550781 7.550781 -7.566406 L 8.714844 -7.234375 C 9.582031 -10.066406 7.300781 -11.167969 5 -11.167969 C 2.78125 -11.167969 1.066406 -10.316406 1.066406 -8.464844 C 1.066406 -6.464844 2.984375 -5.933594 4.984375 -5.148438 C 6.699219 -4.484375 8.132812 -4.25 8.132812 -2.582031 C 8.132812 -1.132812 7.101562 -0.449219 5.332031 -0.449219 C 3.234375 -0.449219 1.132812 -1.300781 2 -4.082031 L 0.832031 -4.417969 C -0.0351562 -0.800781 2.75 0.167969 5.300781 0.167969 Z M 5.300781 0.167969 "/></g></g></g><g fill="#424242" fill-opacity="1"><g transform="translate(346.54149, 150.524522)"><g><path d="M 3.800781 0 L 6.632812 0 L 6.632812 -0.285156 C 5.949219 -0.285156 5.800781 -0.617188 5.800781 -1.617188 L 5.800781 -10.382812 L 8.082031 -10.382812 C 9.097656 -10.382812 9.449219 -10.066406 9.667969 -8.699219 L 9.933594 -8.734375 L 9.648438 -10.800781 L 9.617188 -11 L 0.816406 -11 L 0.785156 -10.800781 L 0.5 -8.734375 L 0.765625 -8.699219 C 0.984375 -10.066406 1.351562 -10.382812 2.351562 -10.382812 L 4.632812 -10.382812 L 4.632812 -1.617188 C 4.632812 -0.617188 4.484375 -0.285156 3.800781 -0.285156 Z M 3.800781 0 "/></g></g></g><g fill="#424242" fill-opacity="1"><g transform="translate(364.263123, 150.524522)"><g/></g></g><g fill="#424242" fill-opacity="1"><g transform="translate(375.401715, 150.524522)"><g><path d="M 5.550781 0.167969 C 8.316406 0.167969 9.949219 -1.265625 9.867188 -4.132812 L 8.699219 -3.800781 C 8.867188 -1.582031 7.53125 -0.449219 5.550781 -0.449219 C 3.132812 -0.449219 1.832031 -2.332031 1.832031 -5.5 C 1.832031 -8.667969 3.300781 -10.550781 5.714844 -10.550781 C 7.53125 -10.550781 8.867188 -9.417969 8.699219 -7.367188 L 9.867188 -7.03125 C 9.949219 -9.734375 8.316406 -11.167969 5.714844 -11.167969 C 2.550781 -11.167969 0.667969 -9.082031 0.667969 -5.5 C 0.667969 -1.917969 2.382812 0.167969 5.550781 0.167969 Z M 5.550781 0.167969 "/></g></g></g><g fill="#424242" fill-opacity="1"><g transform="translate(393.22334, 150.524522)"><g><path d="M 0.332031 0 L 3.617188 0 L 3.617188 -0.285156 C 2.25 -0.285156 2.183594 -0.566406 2.582031 -1.484375 L 4.148438 -5.214844 L 8.367188 -5.214844 L 9.933594 -1.484375 C 10.316406 -0.566406 10.25 -0.285156 8.882812 -0.285156 L 8.882812 0 L 12.78125 0 L 12.78125 -0.285156 C 11.984375 -0.285156 11.582031 -0.566406 11.199219 -1.484375 L 7.183594 -11 L 4.550781 -11 L 4.550781 -10.714844 C 5.582031 -10.714844 5.699219 -10.484375 5.398438 -9.714844 L 1.917969 -1.484375 C 1.535156 -0.566406 1.132812 -0.285156 0.332031 -0.285156 Z M 4.417969 -5.816406 L 6.265625 -10.214844 L 8.101562 -5.816406 Z M 4.417969 -5.816406 "/></g></g></g><g fill="#424242" fill-opacity="1"><g transform="translate(413.628196, 150.524522)"><g><path d="M 0.667969 0 L 3.5 0 L 3.5 -0.285156 C 2.816406 -0.285156 2.667969 -0.617188 2.667969 -1.617188 L 2.667969 -4.734375 L 5.75 -4.734375 C 6.75 -4.734375 7.082031 -4.582031 7.082031 -3.898438 L 7.367188 -3.898438 L 7.367188 -6.183594 L 7.082031 -6.183594 C 7.082031 -5.5 6.75 -5.351562 5.75 -5.351562 L 2.667969 -5.351562 L 2.667969 -10.382812 L 6.632812 -10.382812 C 7.632812 -10.382812 8.015625 -10 8.265625 -8.28125 L 8.550781 -8.332031 L 8.167969 -10.898438 L 8.148438 -11 L 0.667969 -11 L 0.667969 -10.714844 C 1.351562 -10.714844 1.5 -10.382812 1.5 -9.382812 L 1.5 -1.617188 C 1.5 -0.617188 1.351562 -0.285156 0.667969 -0.285156 Z M 0.667969 0 "/></g></g></g><g fill="#424242" fill-opacity="1"><g transform="translate(430.133212, 150.524522)"><g><path d="M 0.667969 0 L 8.265625 0 L 8.300781 -0.199219 L 8.582031 -2.265625 L 8.316406 -2.300781 C 8.101562 -0.933594 7.734375 -0.617188 6.734375 -0.617188 L 2.667969 -0.617188 L 2.667969 -5.28125 L 5.382812 -5.28125 C 6.382812 -5.28125 6.699219 -5.132812 6.699219 -4.449219 L 6.984375 -4.449219 L 6.984375 -6.714844 L 6.699219 -6.714844 C 6.699219 -6.03125 6.382812 -5.882812 5.382812 -5.882812 L 2.667969 -5.882812 L 2.667969 -10.382812 L 6.566406 -10.382812 C 7.566406 -10.382812 7.933594 -10.066406 8.148438 -8.699219 L 8.417969 -8.734375 L 8.132812 -10.800781 L 8.101562 -11 L 0.667969 -11 L 0.667969 -10.714844 C 1.351562 -10.714844 1.5 -10.382812 1.5 -9.382812 L 1.5 -1.617188 C 1.5 -0.617188 1.351562 -0.285156 0.667969 -0.285156 Z M 0.667969 0 "/></g></g></g></svg>