<svg xmlns="http://www.w3.org/2000/svg" xmlns:xlink="http://www.w3.org/1999/xlink" width="500" zoomAndPan="magnify" viewBox="0 0 375 374.999991" height="500" preserveAspectRatio="xMidYMid meet" version="1.0"><defs><g/></defs><rect x="-37.5" width="450" fill="#424242" y="-37.499999" height="449.999989" fill-opacity="1"/><rect x="-37.5" width="450" fill="#ffffff" y="-37.499999" height="449.999989" fill-opacity="1"/><rect x="-37.5" width="450" fill="#424242" y="-37.499999" height="449.999989" fill-opacity="1"/><path fill="#ffffff" d="M 105.242188 172.710938 C 105.316406 172.699219 105.390625 172.691406 105.464844 172.683594 C 105.613281 172.667969 105.765625 172.65625 105.914062 172.640625 C 106.0625 172.625 106.210938 172.613281 106.359375 172.59375 C 106.410156 172.585938 106.460938 172.582031 106.511719 172.570312 C 106.59375 172.488281 106.675781 172.402344 106.753906 172.316406 C 106.875 172.1875 106.988281 172.054688 107.101562 171.921875 C 107.171875 171.835938 107.238281 171.75 107.304688 171.664062 C 107.308594 171.628906 107.308594 171.59375 107.308594 171.5625 C 107.308594 171.492188 107.3125 171.421875 107.304688 171.351562 C 107.304688 171.28125 107.296875 171.214844 107.289062 171.148438 C 107.28125 171.078125 107.273438 171.011719 107.257812 170.949219 C 107.230469 170.816406 107.191406 170.691406 107.140625 170.578125 C 107.085938 170.460938 107.019531 170.351562 106.945312 170.25 C 106.871094 170.148438 106.785156 170.058594 106.691406 169.972656 C 106.644531 169.929688 106.59375 169.890625 106.542969 169.847656 C 106.492188 169.8125 106.441406 169.773438 106.386719 169.734375 C 106.285156 169.667969 106.179688 169.601562 106.066406 169.546875 C 106.074219 169.589844 106.078125 169.636719 106.082031 169.679688 C 106.089844 169.882812 106.066406 170.078125 106.023438 170.265625 C 105.9375 170.636719 105.789062 170.976562 105.621094 171.300781 C 105.453125 171.625 105.257812 171.933594 105.050781 172.230469 C 104.90625 172.433594 104.757812 172.632812 104.601562 172.824219 C 104.738281 172.792969 104.878906 172.765625 105.019531 172.746094 C 105.089844 172.730469 105.167969 172.722656 105.242188 172.710938 " fill-opacity="1" fill-rule="nonzero"/><path fill="#ffffff" d="M 114.023438 176.507812 C 114.027344 176.503906 114.03125 176.503906 114.035156 176.5 L 114.023438 176.507812 " fill-opacity="1" fill-rule="nonzero"/><path fill="#ffffff" d="M 99.585938 177.78125 C 99.601562 177.777344 99.621094 177.769531 99.644531 177.765625 C 99.640625 177.746094 99.636719 177.730469 99.636719 177.714844 C 99.628906 177.671875 99.628906 177.625 99.625 177.582031 C 99.625 177.570312 99.625 177.5625 99.625 177.550781 C 99.621094 177.519531 99.621094 177.492188 99.617188 177.460938 C 99.617188 177.421875 99.617188 177.382812 99.621094 177.34375 C 99.621094 177.300781 99.625 177.261719 99.632812 177.222656 C 99.640625 177.179688 99.644531 177.140625 99.65625 177.097656 C 99.667969 177.058594 99.679688 177.019531 99.695312 176.976562 L 99.75 176.863281 C 99.773438 176.824219 99.796875 176.792969 99.824219 176.757812 L 96.988281 170.246094 C 96.925781 170.105469 96.8125 169.996094 96.667969 169.941406 C 96.601562 169.914062 96.53125 169.902344 96.460938 169.902344 C 96.382812 169.902344 96.304688 169.917969 96.230469 169.949219 C 96.089844 170.007812 95.980469 170.121094 95.925781 170.265625 C 95.871094 170.40625 95.871094 170.5625 95.933594 170.703125 L 99.09375 177.953125 L 99.585938 177.78125 " fill-opacity="1" fill-rule="nonzero"/><path fill="#ffffff" d="M 100.070312 177.519531 C 100.078125 177.574219 100.089844 177.628906 100.109375 177.6875 C 100.113281 177.699219 100.117188 177.710938 100.121094 177.722656 C 100.152344 177.71875 100.1875 177.710938 100.222656 177.707031 C 100.246094 177.707031 100.269531 177.703125 100.292969 177.699219 C 100.792969 177.644531 101.289062 177.628906 101.78125 177.621094 C 102.816406 177.609375 103.84375 177.636719 104.867188 177.621094 C 105.378906 177.613281 105.886719 177.597656 106.398438 177.574219 C 106.910156 177.546875 107.417969 177.515625 107.925781 177.464844 C 108.179688 177.445312 108.433594 177.410156 108.6875 177.382812 C 108.9375 177.351562 109.191406 177.320312 109.445312 177.28125 C 109.695312 177.242188 109.949219 177.203125 110.199219 177.15625 L 110.570312 177.089844 L 110.945312 177.007812 C 111.445312 176.894531 111.941406 176.777344 112.433594 176.644531 C 112.679688 176.578125 112.925781 176.507812 113.164062 176.429688 C 113.402344 176.351562 113.648438 176.269531 113.851562 176.164062 L 113.859375 176.160156 L 113.863281 176.160156 C 113.921875 176.132812 113.96875 176.117188 114.023438 176.101562 C 114.035156 176.09375 114.050781 176.09375 114.066406 176.089844 L 114.050781 176.070312 C 114.113281 176.015625 114.285156 175.816406 114.273438 175.652344 C 114.269531 175.617188 114.261719 175.515625 114.078125 175.394531 C 113.753906 175.183594 113.542969 174.945312 113.40625 174.742188 L 113.195312 174.941406 C 113.101562 175.027344 113.003906 175.109375 112.90625 175.1875 C 112.804688 175.269531 112.703125 175.339844 112.597656 175.414062 C 112.496094 175.488281 112.390625 175.558594 112.285156 175.625 C 112.175781 175.6875 112.070312 175.757812 111.957031 175.816406 C 111.84375 175.871094 111.738281 175.9375 111.621094 175.992188 C 111.507812 176.042969 111.398438 176.105469 111.28125 176.148438 C 111.164062 176.195312 111.050781 176.246094 110.933594 176.292969 L 110.582031 176.417969 C 110.460938 176.457031 110.34375 176.492188 110.222656 176.527344 C 110.105469 176.566406 109.980469 176.589844 109.859375 176.621094 C 109.738281 176.652344 109.621094 176.683594 109.496094 176.703125 L 109.132812 176.769531 C 109.007812 176.785156 108.886719 176.800781 108.761719 176.816406 C 108.699219 176.824219 108.640625 176.832031 108.578125 176.835938 L 108.394531 176.847656 C 108.269531 176.855469 108.148438 176.863281 108.023438 176.867188 C 108.144531 176.839844 108.261719 176.8125 108.382812 176.78125 L 108.5625 176.738281 C 108.621094 176.726562 108.679688 176.707031 108.738281 176.691406 C 108.855469 176.65625 108.976562 176.628906 109.09375 176.597656 L 109.441406 176.488281 C 109.558594 176.453125 109.671875 176.410156 109.785156 176.371094 C 109.902344 176.328125 110.015625 176.292969 110.128906 176.246094 L 110.464844 176.109375 L 110.796875 175.964844 C 110.902344 175.914062 111.011719 175.855469 111.117188 175.804688 C 111.226562 175.753906 111.332031 175.691406 111.4375 175.636719 C 111.542969 175.582031 111.644531 175.515625 111.746094 175.457031 C 111.851562 175.394531 111.949219 175.324219 112.046875 175.261719 C 112.148438 175.195312 112.242188 175.125 112.339844 175.054688 C 112.433594 174.984375 112.53125 174.914062 112.621094 174.835938 C 112.710938 174.761719 112.800781 174.683594 112.886719 174.605469 L 113.015625 174.484375 L 113.117188 174.382812 C 113.148438 174.3125 113.164062 174.238281 113.164062 174.15625 C 113.164062 174.066406 113.144531 173.96875 113.105469 173.875 C 113.066406 173.78125 113.011719 173.6875 112.949219 173.601562 C 112.882812 173.519531 112.804688 173.441406 112.722656 173.375 C 112.558594 173.238281 112.355469 173.15625 112.195312 173.183594 C 112.15625 173.191406 112.121094 173.203125 112.085938 173.222656 C 112.050781 173.242188 112.015625 173.273438 111.992188 173.296875 C 111.988281 173.300781 111.976562 173.3125 111.964844 173.324219 L 111.9375 173.363281 L 111.929688 173.371094 L 111.929688 173.375 L 111.925781 173.375 C 111.941406 173.351562 111.941406 173.355469 111.9375 173.359375 C 111.9375 173.363281 111.9375 173.363281 111.9375 173.359375 L 111.933594 173.367188 L 111.890625 173.429688 C 111.851562 173.492188 111.808594 173.542969 111.765625 173.597656 C 111.671875 173.699219 111.574219 173.796875 111.46875 173.878906 C 111.359375 173.960938 111.246094 174.039062 111.128906 174.097656 C 110.894531 174.222656 110.648438 174.3125 110.398438 174.378906 C 110.273438 174.410156 110.148438 174.4375 110.023438 174.457031 C 109.898438 174.480469 109.769531 174.496094 109.644531 174.507812 C 109.515625 174.519531 109.390625 174.523438 109.265625 174.527344 C 109.136719 174.527344 109.011719 174.527344 108.886719 174.515625 C 109.132812 174.484375 109.378906 174.4375 109.625 174.382812 C 109.863281 174.320312 110.101562 174.253906 110.332031 174.164062 C 110.558594 174.074219 110.777344 173.96875 110.976562 173.839844 C 111.074219 173.773438 111.167969 173.699219 111.253906 173.625 C 111.339844 173.546875 111.417969 173.460938 111.484375 173.371094 C 111.515625 173.324219 111.550781 173.28125 111.574219 173.230469 L 111.597656 173.195312 L 111.605469 173.175781 L 111.609375 173.171875 L 111.625 173.152344 L 111.628906 173.140625 L 111.65625 173.101562 C 111.664062 173.089844 111.671875 173.078125 111.6875 173.058594 C 111.746094 172.988281 111.808594 172.929688 111.878906 172.886719 C 111.890625 172.878906 111.902344 172.875 111.910156 172.867188 C 111.917969 172.832031 111.925781 172.789062 111.933594 172.75 C 111.941406 172.703125 111.941406 172.652344 111.945312 172.601562 C 111.949219 172.5 111.941406 172.390625 111.921875 172.277344 C 111.910156 172.21875 111.890625 172.164062 111.875 172.105469 C 111.859375 172.046875 111.835938 171.988281 111.8125 171.933594 C 111.78125 171.875 111.761719 171.816406 111.722656 171.761719 C 111.707031 171.734375 111.691406 171.703125 111.675781 171.675781 L 111.617188 171.597656 C 111.542969 171.488281 111.457031 171.386719 111.363281 171.289062 C 111.269531 171.191406 111.171875 171.097656 111.070312 171.015625 C 110.96875 170.929688 110.863281 170.851562 110.761719 170.777344 C 110.65625 170.703125 110.554688 170.636719 110.453125 170.578125 C 110.394531 170.539062 110.335938 170.507812 110.277344 170.476562 C 110.324219 170.617188 110.355469 170.761719 110.367188 170.90625 C 110.375 171.003906 110.378906 171.101562 110.375 171.199219 C 110.375 171.246094 110.371094 171.296875 110.367188 171.34375 C 110.363281 171.367188 110.359375 171.390625 110.359375 171.414062 L 110.351562 171.476562 C 110.347656 171.496094 110.347656 171.511719 110.34375 171.523438 L 110.339844 171.566406 C 110.332031 171.589844 110.328125 171.617188 110.320312 171.640625 C 110.308594 171.691406 110.292969 171.738281 110.277344 171.785156 C 110.242188 171.882812 110.203125 171.972656 110.160156 172.0625 C 110.070312 172.234375 109.957031 172.394531 109.832031 172.542969 C 109.707031 172.6875 109.5625 172.816406 109.410156 172.929688 C 109.261719 173.042969 109.101562 173.144531 108.9375 173.234375 C 108.773438 173.320312 108.605469 173.394531 108.433594 173.457031 L 108.300781 173.503906 L 108.171875 173.546875 C 108.085938 173.578125 107.996094 173.597656 107.910156 173.625 C 107.730469 173.667969 107.554688 173.703125 107.375 173.734375 C 107.289062 173.75 107.199219 173.761719 107.109375 173.773438 C 107.019531 173.785156 106.929688 173.792969 106.839844 173.800781 C 106.660156 173.816406 106.480469 173.820312 106.300781 173.828125 C 106.476562 173.789062 106.652344 173.753906 106.824219 173.710938 C 106.914062 173.695312 107 173.671875 107.082031 173.648438 C 107.171875 173.625 107.257812 173.601562 107.339844 173.574219 C 107.511719 173.527344 107.679688 173.46875 107.84375 173.40625 C 107.921875 173.375 108.007812 173.347656 108.085938 173.3125 L 108.207031 173.261719 L 108.324219 173.203125 C 108.480469 173.128906 108.628906 173.042969 108.777344 172.953125 C 108.921875 172.863281 109.058594 172.761719 109.183594 172.652344 C 109.3125 172.542969 109.425781 172.417969 109.53125 172.289062 C 109.632812 172.160156 109.722656 172.023438 109.789062 171.878906 C 109.820312 171.804688 109.851562 171.730469 109.875 171.65625 C 109.886719 171.617188 109.894531 171.582031 109.902344 171.542969 C 109.90625 171.523438 109.910156 171.507812 109.914062 171.488281 L 109.914062 171.464844 L 109.917969 171.445312 L 109.925781 171.3125 C 109.929688 171.269531 109.933594 171.230469 109.933594 171.1875 C 109.933594 171.109375 109.929688 171.027344 109.917969 170.949219 C 109.902344 170.789062 109.863281 170.640625 109.804688 170.5 C 109.742188 170.359375 109.65625 170.234375 109.550781 170.125 C 109.339844 169.902344 109.050781 169.746094 108.734375 169.648438 C 108.578125 169.597656 108.414062 169.5625 108.246094 169.535156 C 108.242188 169.535156 108.238281 169.535156 108.238281 169.535156 C 108.246094 169.550781 108.253906 169.566406 108.265625 169.582031 C 108.359375 169.777344 108.386719 169.996094 108.367188 170.195312 C 108.347656 170.394531 108.285156 170.582031 108.207031 170.753906 C 108.128906 170.921875 108.03125 171.078125 107.929688 171.226562 C 107.875 171.300781 107.820312 171.375 107.765625 171.445312 C 107.707031 171.515625 107.652344 171.585938 107.589844 171.648438 C 107.46875 171.78125 107.34375 171.910156 107.214844 172.03125 C 107.089844 172.152344 106.953125 172.269531 106.816406 172.378906 C 106.738281 172.441406 106.660156 172.503906 106.578125 172.5625 C 106.652344 172.550781 106.722656 172.539062 106.792969 172.53125 C 106.867188 172.519531 106.9375 172.503906 107.007812 172.488281 C 107.078125 172.476562 107.148438 172.460938 107.21875 172.445312 C 107.359375 172.421875 107.492188 172.375 107.625 172.339844 C 107.761719 172.304688 107.886719 172.257812 108.011719 172.210938 C 108.136719 172.167969 108.253906 172.105469 108.367188 172.050781 C 108.425781 172.027344 108.480469 171.992188 108.53125 171.960938 C 108.582031 171.925781 108.632812 171.894531 108.683594 171.863281 C 108.730469 171.828125 108.777344 171.789062 108.820312 171.753906 C 108.84375 171.738281 108.867188 171.71875 108.890625 171.703125 C 108.910156 171.683594 108.925781 171.664062 108.945312 171.640625 C 108.984375 171.605469 109.023438 171.566406 109.058594 171.527344 C 109.089844 171.484375 109.121094 171.445312 109.152344 171.402344 C 109.167969 171.382812 109.183594 171.363281 109.195312 171.34375 C 109.207031 171.320312 109.21875 171.300781 109.230469 171.28125 C 109.253906 171.238281 109.28125 171.199219 109.296875 171.15625 C 109.332031 171.074219 109.371094 171 109.390625 170.921875 C 109.398438 170.882812 109.410156 170.847656 109.421875 170.8125 C 109.429688 170.777344 109.4375 170.746094 109.441406 170.710938 C 109.457031 170.648438 109.464844 170.589844 109.472656 170.542969 C 109.476562 170.492188 109.484375 170.449219 109.488281 170.414062 C 109.492188 170.34375 109.496094 170.304688 109.496094 170.304688 C 109.496094 170.304688 109.496094 170.34375 109.492188 170.414062 C 109.492188 170.449219 109.488281 170.492188 109.480469 170.542969 C 109.476562 170.59375 109.472656 170.652344 109.460938 170.714844 C 109.457031 170.75 109.449219 170.78125 109.445312 170.820312 C 109.4375 170.855469 109.429688 170.890625 109.417969 170.929688 C 109.402344 171.007812 109.367188 171.085938 109.335938 171.175781 C 109.320312 171.21875 109.296875 171.257812 109.277344 171.304688 C 109.265625 171.324219 109.253906 171.347656 109.242188 171.371094 C 109.230469 171.394531 109.214844 171.414062 109.199219 171.433594 C 109.171875 171.476562 109.140625 171.523438 109.109375 171.566406 C 109.074219 171.609375 109.035156 171.648438 109 171.691406 C 108.980469 171.714844 108.960938 171.738281 108.941406 171.757812 C 108.917969 171.777344 108.894531 171.796875 108.875 171.816406 C 108.828125 171.855469 108.785156 171.894531 108.738281 171.933594 C 108.6875 171.96875 108.632812 172.003906 108.582031 172.042969 C 108.53125 172.078125 108.476562 172.113281 108.417969 172.144531 C 108.304688 172.207031 108.1875 172.277344 108.058594 172.324219 C 107.996094 172.351562 107.933594 172.378906 107.871094 172.40625 C 107.804688 172.4375 107.738281 172.453125 107.671875 172.476562 C 107.535156 172.523438 107.398438 172.574219 107.257812 172.605469 C 107.1875 172.625 107.117188 172.644531 107.042969 172.664062 C 106.972656 172.683594 106.902344 172.699219 106.828125 172.714844 C 106.679688 172.742188 106.535156 172.773438 106.386719 172.800781 C 106.238281 172.828125 106.089844 172.847656 105.941406 172.867188 C 105.792969 172.890625 105.644531 172.914062 105.496094 172.933594 C 105.425781 172.941406 105.351562 172.957031 105.28125 172.96875 C 105.210938 172.984375 105.136719 172.996094 105.066406 173.011719 C 104.785156 173.070312 104.511719 173.148438 104.257812 173.242188 C 104.003906 173.339844 103.765625 173.453125 103.5625 173.582031 C 103.355469 173.710938 103.179688 173.859375 103.039062 174.007812 C 102.898438 174.160156 102.789062 174.316406 102.714844 174.460938 C 102.640625 174.609375 102.597656 174.742188 102.570312 174.855469 C 102.546875 174.953125 102.539062 175.03125 102.535156 175.085938 C 102.59375 175.097656 102.652344 175.105469 102.714844 175.113281 C 103.234375 175.175781 103.765625 175.167969 104.296875 175.140625 C 104.828125 175.113281 105.359375 175.050781 105.882812 174.96875 C 106.410156 174.882812 106.929688 174.769531 107.445312 174.625 C 107.957031 174.476562 108.460938 174.300781 108.941406 174.070312 C 109.183594 173.957031 109.417969 173.828125 109.640625 173.679688 C 109.859375 173.535156 110.070312 173.371094 110.257812 173.179688 C 110.445312 172.992188 110.605469 172.777344 110.722656 172.535156 C 110.777344 172.414062 110.824219 172.289062 110.851562 172.160156 C 110.882812 172.027344 110.898438 171.894531 110.898438 171.761719 C 110.902344 171.894531 110.890625 172.027344 110.867188 172.160156 C 110.839844 172.292969 110.796875 172.421875 110.746094 172.546875 C 110.636719 172.792969 110.476562 173.015625 110.292969 173.214844 C 110.113281 173.414062 109.902344 173.589844 109.679688 173.742188 C 109.460938 173.898438 109.226562 174.039062 108.988281 174.160156 C 108.507812 174.410156 108.003906 174.605469 107.488281 174.769531 C 106.972656 174.933594 106.449219 175.0625 105.917969 175.167969 C 105.390625 175.273438 104.855469 175.347656 104.316406 175.398438 C 103.777344 175.441406 103.234375 175.464844 102.683594 175.417969 C 102.613281 175.410156 102.546875 175.402344 102.476562 175.394531 L 102.371094 175.378906 L 102.273438 175.359375 C 102.203125 175.347656 102.144531 175.339844 102.082031 175.328125 C 102.015625 175.324219 101.953125 175.3125 101.890625 175.3125 C 101.765625 175.300781 101.644531 175.308594 101.523438 175.320312 C 101.40625 175.339844 101.292969 175.371094 101.1875 175.417969 C 100.980469 175.511719 100.820312 175.675781 100.722656 175.886719 C 100.675781 175.992188 100.640625 176.105469 100.617188 176.222656 C 100.609375 176.269531 100.605469 176.316406 100.597656 176.363281 C 100.71875 176.378906 100.929688 176.402344 101.199219 176.429688 C 101.625 176.472656 102.1875 176.527344 102.753906 176.570312 C 103.039062 176.589844 103.320312 176.605469 103.585938 176.617188 C 103.71875 176.621094 103.847656 176.628906 103.972656 176.628906 C 104.089844 176.628906 104.207031 176.632812 104.3125 176.632812 C 104.417969 176.628906 104.519531 176.628906 104.605469 176.621094 C 104.691406 176.617188 104.765625 176.613281 104.828125 176.605469 C 104.949219 176.589844 105.019531 176.582031 105.019531 176.582031 C 105.019531 176.582031 104.953125 176.597656 104.832031 176.625 C 104.769531 176.640625 104.695312 176.648438 104.609375 176.664062 C 104.523438 176.679688 104.425781 176.6875 104.320312 176.703125 C 104.210938 176.714844 104.097656 176.722656 103.972656 176.734375 C 103.851562 176.746094 103.722656 176.753906 103.589844 176.765625 C 103.320312 176.777344 103.035156 176.792969 102.75 176.796875 C 102.179688 176.816406 101.609375 176.816406 101.179688 176.816406 C 100.753906 176.8125 100.46875 176.8125 100.46875 176.8125 C 100.445312 176.8125 100.425781 176.808594 100.410156 176.800781 L 100.398438 176.808594 C 100.371094 176.824219 100.347656 176.832031 100.328125 176.851562 L 100.265625 176.898438 C 100.242188 176.910156 100.230469 176.933594 100.210938 176.949219 C 100.195312 176.96875 100.175781 176.984375 100.164062 177.007812 C 100.152344 177.027344 100.136719 177.046875 100.125 177.070312 C 100.117188 177.089844 100.109375 177.113281 100.097656 177.136719 C 100.089844 177.15625 100.085938 177.183594 100.078125 177.207031 C 100.070312 177.226562 100.070312 177.253906 100.066406 177.28125 C 100.058594 177.304688 100.058594 177.332031 100.058594 177.359375 C 100.058594 177.386719 100.058594 177.410156 100.0625 177.4375 C 100.0625 177.464844 100.066406 177.492188 100.070312 177.519531 " fill-opacity="1" fill-rule="nonzero"/><path fill="#ffffff" d="M 113.136719 174.359375 L 113.117188 174.382812 C 113.113281 174.390625 113.109375 174.398438 113.105469 174.402344 L 113.136719 174.359375 " fill-opacity="1" fill-rule="nonzero"/><path fill="#ffffff" d="M 100.203125 181.507812 C 102.070312 181.832031 104.5625 182.011719 107.210938 182.011719 C 113.621094 182.011719 116.769531 181.09375 116.957031 180.445312 C 116.957031 180.441406 116.960938 180.4375 116.960938 180.429688 C 116.964844 180.425781 116.964844 180.421875 116.964844 180.417969 C 117.378906 179.472656 117.085938 179.324219 116.71875 179.144531 C 116.667969 179.117188 116.617188 179.09375 116.566406 179.066406 C 116.558594 179.070312 116.546875 179.078125 116.535156 179.085938 C 116.496094 179.113281 116.453125 179.144531 116.402344 179.175781 C 116.351562 179.207031 116.292969 179.246094 116.234375 179.28125 C 116.171875 179.320312 116.101562 179.359375 116.03125 179.398438 C 115.957031 179.441406 115.878906 179.480469 115.796875 179.523438 C 115.714844 179.566406 115.628906 179.613281 115.535156 179.652344 C 115.445312 179.695312 115.347656 179.742188 115.25 179.785156 C 115.148438 179.832031 115.042969 179.871094 114.9375 179.914062 C 114.882812 179.9375 114.828125 179.960938 114.773438 179.980469 C 114.71875 180.003906 114.660156 180.023438 114.605469 180.042969 C 114.488281 180.082031 114.375 180.125 114.253906 180.167969 C 114.132812 180.207031 114.011719 180.242188 113.886719 180.28125 C 113.761719 180.316406 113.640625 180.359375 113.511719 180.386719 C 113.382812 180.421875 113.253906 180.453125 113.125 180.484375 C 113.058594 180.503906 112.996094 180.519531 112.929688 180.535156 L 112.734375 180.574219 C 112.472656 180.625 112.210938 180.683594 111.949219 180.71875 C 111.820312 180.738281 111.691406 180.757812 111.566406 180.777344 C 111.5 180.789062 111.4375 180.796875 111.375 180.808594 C 111.3125 180.8125 111.25 180.820312 111.1875 180.828125 C 110.941406 180.851562 110.699219 180.878906 110.472656 180.902344 C 110.242188 180.914062 110.027344 180.925781 109.828125 180.9375 C 109.730469 180.945312 109.632812 180.949219 109.542969 180.957031 C 109.453125 180.957031 109.367188 180.957031 109.285156 180.960938 C 109.125 180.960938 108.984375 180.964844 108.867188 180.964844 C 108.632812 180.96875 108.5 180.96875 108.5 180.96875 C 108.5 180.96875 108.632812 180.960938 108.867188 180.945312 C 108.980469 180.9375 109.121094 180.925781 109.28125 180.917969 C 109.363281 180.910156 109.449219 180.90625 109.539062 180.898438 C 109.628906 180.890625 109.726562 180.878906 109.824219 180.867188 C 110.019531 180.84375 110.234375 180.820312 110.460938 180.796875 C 110.683594 180.761719 110.921875 180.722656 111.167969 180.683594 C 111.226562 180.671875 111.289062 180.664062 111.351562 180.652344 C 111.414062 180.640625 111.476562 180.628906 111.539062 180.613281 C 111.664062 180.589844 111.789062 180.5625 111.914062 180.535156 C 112.171875 180.488281 112.425781 180.414062 112.679688 180.351562 L 112.871094 180.300781 C 112.933594 180.28125 112.996094 180.261719 113.058594 180.242188 C 113.183594 180.203125 113.308594 180.164062 113.433594 180.128906 C 113.558594 180.09375 113.675781 180.042969 113.796875 180 C 113.914062 179.957031 114.03125 179.917969 114.148438 179.871094 C 114.261719 179.824219 114.371094 179.777344 114.480469 179.734375 C 114.535156 179.710938 114.589844 179.6875 114.640625 179.664062 C 114.695312 179.640625 114.746094 179.617188 114.796875 179.59375 C 114.898438 179.542969 114.996094 179.5 115.09375 179.453125 C 115.183594 179.402344 115.273438 179.355469 115.359375 179.308594 C 115.449219 179.265625 115.527344 179.214844 115.601562 179.171875 C 115.679688 179.125 115.753906 179.085938 115.816406 179.042969 C 115.882812 179 115.945312 178.957031 116 178.921875 C 116.054688 178.882812 116.105469 178.847656 116.152344 178.816406 C 116.1875 178.789062 116.21875 178.765625 116.246094 178.742188 C 116.222656 178.6875 116.207031 178.625 116.207031 178.550781 L 116.207031 178.523438 C 116.238281 178.21875 116.183594 178 116.046875 177.875 C 115.882812 177.726562 115.625 177.734375 115.515625 177.746094 C 115.507812 177.757812 115.503906 177.769531 115.5 177.777344 C 115.441406 177.886719 115.363281 177.976562 115.28125 178.050781 C 115.117188 178.203125 114.933594 178.304688 114.75 178.398438 C 114.382812 178.582031 114 178.710938 113.613281 178.820312 C 113.226562 178.933594 112.835938 179.019531 112.445312 179.097656 C 112.410156 179.101562 112.375 179.109375 112.339844 179.113281 L 112.339844 179.117188 C 112.335938 179.117188 112.332031 179.117188 112.328125 179.117188 C 112.324219 179.117188 112.324219 179.117188 112.324219 179.117188 C 111.996094 179.179688 111.667969 179.230469 111.339844 179.273438 C 110.945312 179.328125 110.550781 179.371094 110.152344 179.402344 C 109.953125 179.417969 109.753906 179.433594 109.558594 179.441406 C 109.359375 179.449219 109.160156 179.453125 108.960938 179.449219 C 109.359375 179.433594 109.753906 179.382812 110.144531 179.328125 C 110.539062 179.273438 110.929688 179.210938 111.316406 179.136719 C 111.65625 179.074219 111.992188 179.003906 112.324219 178.925781 C 112.734375 178.828125 113.144531 178.71875 113.542969 178.589844 C 113.914062 178.46875 114.285156 178.328125 114.617188 178.148438 C 114.785156 178.054688 114.945312 177.953125 115.070312 177.828125 C 115.132812 177.769531 115.183594 177.703125 115.214844 177.636719 C 115.21875 177.636719 115.21875 177.636719 115.21875 177.632812 C 115.226562 177.617188 115.234375 177.601562 115.238281 177.585938 C 115.242188 177.578125 115.242188 177.570312 115.246094 177.566406 L 115.25 177.554688 L 115.253906 177.539062 L 115.257812 177.507812 L 115.257812 177.480469 L 115.261719 177.410156 C 115.261719 177.390625 115.261719 177.375 115.261719 177.355469 C 115.269531 177.1875 115.257812 177.019531 115.222656 176.867188 C 115.183594 176.695312 115.101562 176.554688 114.980469 176.472656 C 114.863281 176.386719 114.699219 176.359375 114.53125 176.375 C 114.476562 176.378906 114.425781 176.386719 114.375 176.398438 C 114.367188 176.398438 114.355469 176.402344 114.347656 176.402344 C 114.324219 176.410156 114.296875 176.414062 114.269531 176.421875 C 114.1875 176.441406 114.097656 176.472656 114.023438 176.507812 C 113.777344 176.640625 113.535156 176.722656 113.289062 176.804688 C 113.042969 176.890625 112.792969 176.964844 112.542969 177.035156 C 112.042969 177.179688 111.546875 177.308594 111.042969 177.429688 L 110.664062 177.515625 L 110.640625 177.523438 L 110.613281 177.527344 L 110.566406 177.535156 L 110.46875 177.554688 L 110.277344 177.589844 C 110.023438 177.640625 109.769531 177.679688 109.511719 177.722656 C 109.253906 177.761719 109 177.792969 108.742188 177.828125 C 108.484375 177.859375 108.226562 177.890625 107.96875 177.914062 C 107.453125 177.96875 106.9375 178.003906 106.421875 178.03125 C 105.902344 178.054688 105.386719 178.066406 104.871094 178.070312 C 104.355469 178.074219 103.839844 178.070312 103.324219 178.066406 C 102.808594 178.0625 102.296875 178.050781 101.785156 178.050781 C 101.332031 178.050781 100.878906 178.058594 100.433594 178.09375 C 100.378906 178.101562 100.320312 178.101562 100.265625 178.109375 C 100.210938 178.113281 100.152344 178.121094 100.097656 178.128906 C 100.027344 178.136719 99.953125 178.148438 99.882812 178.160156 C 99.765625 178.179688 99.648438 178.203125 99.535156 178.234375 C 99.371094 178.277344 99.210938 178.328125 99.058594 178.398438 C 99.023438 178.414062 98.984375 178.433594 98.949219 178.453125 C 98.933594 178.460938 98.917969 178.46875 98.902344 178.480469 C 98.894531 178.484375 98.882812 178.488281 98.875 178.496094 L 98.835938 178.515625 L 98.800781 178.539062 L 98.730469 178.589844 C 98.683594 178.621094 98.644531 178.664062 98.601562 178.703125 C 98.582031 178.722656 98.558594 178.742188 98.539062 178.761719 L 98.492188 178.824219 L 98.441406 178.886719 C 98.421875 178.90625 98.40625 178.9375 98.390625 178.964844 C 98.261719 179.164062 98.1875 179.375 98.246094 179.554688 C 98.25 179.574219 98.253906 179.585938 98.261719 179.601562 C 98.285156 179.65625 98.316406 179.707031 98.359375 179.753906 C 98.441406 179.851562 98.558594 179.933594 98.683594 180 C 98.894531 180.109375 99.128906 180.191406 99.371094 180.253906 C 99.855469 180.378906 100.363281 180.449219 100.871094 180.492188 C 101.378906 180.539062 101.890625 180.5625 102.402344 180.574219 C 102.914062 180.582031 103.429688 180.582031 103.941406 180.570312 C 104.457031 180.558594 104.96875 180.542969 105.484375 180.507812 C 104.972656 180.574219 104.460938 180.628906 103.945312 180.664062 C 103.433594 180.703125 102.917969 180.734375 102.402344 180.746094 C 101.886719 180.757812 101.371094 180.757812 100.855469 180.730469 C 100.335938 180.699219 99.816406 180.648438 99.304688 180.535156 C 99.046875 180.476562 98.789062 180.402344 98.539062 180.28125 C 98.414062 180.21875 98.292969 180.144531 98.183594 180.042969 C 98.175781 180.039062 98.171875 180.03125 98.164062 180.027344 C 97.496094 180.292969 97.472656 180.488281 97.472656 180.507812 C 97.472656 180.691406 98.042969 181.132812 100.203125 181.507812 " fill-opacity="1" fill-rule="nonzero"/><path fill="#ffffff" d="M 117.359375 181.925781 C 117.367188 181.953125 117.371094 181.980469 117.367188 182.007812 L 113.972656 203.394531 C 113.964844 203.535156 113.824219 204.933594 112.742188 205.273438 C 111.824219 205.695312 108.722656 205.925781 106.140625 205.925781 C 104.699219 205.925781 103.417969 205.855469 102.773438 205.703125 C 101.085938 205.300781 100.613281 204.105469 100.59375 204.054688 C 100.585938 204.039062 100.585938 204.027344 100.582031 204.015625 L 97.054688 182.007812 C 97.050781 181.976562 97.054688 181.941406 97.066406 181.914062 C 96.550781 181.636719 96.261719 181.320312 96.261719 180.96875 C 96.261719 180.519531 96.722656 180.117188 97.632812 179.765625 C 97.71875 179.71875 97.8125 179.675781 97.917969 179.632812 C 97.871094 179.484375 97.878906 179.324219 97.914062 179.183594 C 97.929688 179.109375 97.953125 179.039062 97.984375 178.972656 L 98.003906 178.921875 L 98.007812 178.917969 L 98.019531 178.902344 L 98.023438 178.890625 L 98.035156 178.871094 L 98.082031 178.785156 C 98.101562 178.757812 98.113281 178.730469 98.132812 178.699219 L 98.199219 178.609375 L 98.269531 178.519531 C 98.292969 178.492188 98.320312 178.46875 98.34375 178.445312 C 98.394531 178.394531 98.445312 178.339844 98.503906 178.300781 L 98.589844 178.234375 L 98.632812 178.203125 L 98.675781 178.175781 C 98.703125 178.160156 98.726562 178.144531 98.753906 178.132812 L 95.582031 170.855469 C 95.480469 170.625 95.476562 170.363281 95.570312 170.125 C 95.664062 169.886719 95.84375 169.699219 96.078125 169.597656 C 96.3125 169.496094 96.570312 169.492188 96.808594 169.585938 C 97.046875 169.679688 97.234375 169.859375 97.335938 170.09375 L 100.125 176.488281 C 100.144531 176.476562 100.167969 176.464844 100.1875 176.453125 C 100.191406 176.421875 100.191406 176.390625 100.195312 176.363281 C 100.203125 176.289062 100.214844 176.214844 100.230469 176.144531 C 100.261719 175.996094 100.3125 175.855469 100.378906 175.71875 C 100.449219 175.582031 100.542969 175.453125 100.65625 175.34375 C 100.769531 175.234375 100.902344 175.148438 101.042969 175.089844 C 101.1875 175.03125 101.335938 174.996094 101.484375 174.980469 C 101.628906 174.96875 101.777344 174.964844 101.917969 174.980469 C 101.976562 174.984375 102.03125 174.992188 102.089844 175.003906 C 102.097656 174.929688 102.117188 174.84375 102.144531 174.742188 C 102.183594 174.601562 102.25 174.433594 102.351562 174.261719 C 102.449219 174.085938 102.589844 173.90625 102.761719 173.738281 C 102.933594 173.566406 103.144531 173.410156 103.382812 173.277344 C 103.617188 173.144531 103.878906 173.035156 104.15625 172.949219 C 104.265625 172.914062 104.375 172.882812 104.488281 172.855469 C 104.539062 172.773438 104.59375 172.691406 104.644531 172.605469 C 104.742188 172.457031 104.832031 172.304688 104.921875 172.148438 C 105.097656 171.835938 105.257812 171.519531 105.398438 171.195312 C 105.535156 170.871094 105.648438 170.535156 105.703125 170.203125 C 105.730469 170.035156 105.738281 169.867188 105.71875 169.710938 C 105.699219 169.554688 105.652344 169.410156 105.566406 169.300781 L 105.253906 168.882812 L 105.78125 168.992188 C 105.871094 169.011719 105.9375 169.03125 106.011719 169.054688 C 106.085938 169.078125 106.160156 169.101562 106.230469 169.128906 C 106.375 169.1875 106.515625 169.253906 106.648438 169.339844 C 106.714844 169.378906 106.777344 169.425781 106.839844 169.472656 C 106.902344 169.523438 106.960938 169.574219 107.015625 169.632812 C 107.128906 169.746094 107.230469 169.871094 107.3125 170.007812 C 107.394531 170.148438 107.457031 170.300781 107.496094 170.453125 C 107.539062 170.605469 107.558594 170.765625 107.554688 170.917969 C 107.558594 170.996094 107.550781 171.074219 107.539062 171.148438 C 107.53125 171.226562 107.519531 171.296875 107.5 171.371094 C 107.496094 171.386719 107.492188 171.398438 107.488281 171.414062 C 107.5625 171.304688 107.632812 171.195312 107.699219 171.082031 C 107.785156 170.933594 107.855469 170.78125 107.914062 170.628906 C 107.972656 170.476562 108.007812 170.320312 108.011719 170.171875 C 108.019531 170.023438 107.988281 169.882812 107.917969 169.761719 C 107.855469 169.640625 107.746094 169.539062 107.625 169.453125 L 107.125 169.105469 L 107.734375 169.082031 C 107.839844 169.078125 107.929688 169.078125 108.023438 169.082031 C 108.121094 169.089844 108.210938 169.09375 108.304688 169.109375 C 108.496094 169.128906 108.679688 169.167969 108.863281 169.222656 C 109.046875 169.277344 109.230469 169.351562 109.402344 169.445312 C 109.546875 169.527344 109.6875 169.625 109.8125 169.742188 C 109.84375 169.757812 109.882812 169.777344 109.929688 169.808594 C 110.039062 169.871094 110.191406 169.960938 110.371094 170.082031 C 110.457031 170.144531 110.554688 170.210938 110.652344 170.285156 C 110.75 170.359375 110.851562 170.441406 110.953125 170.53125 C 111.054688 170.617188 111.15625 170.710938 111.257812 170.816406 C 111.355469 170.914062 111.449219 171.023438 111.539062 171.136719 C 111.625 171.253906 111.710938 171.371094 111.777344 171.496094 C 111.792969 171.527344 111.8125 171.558594 111.828125 171.589844 C 111.84375 171.625 111.859375 171.65625 111.871094 171.6875 C 111.902344 171.75 111.921875 171.816406 111.945312 171.878906 C 111.96875 171.945312 111.984375 172.011719 112 172.074219 C 112.007812 172.136719 112.023438 172.199219 112.023438 172.261719 C 112.035156 172.386719 112.03125 172.503906 112.015625 172.609375 C 112.007812 172.660156 112 172.710938 111.988281 172.757812 C 111.980469 172.789062 111.972656 172.816406 111.964844 172.839844 C 112.011719 172.820312 112.066406 172.800781 112.117188 172.789062 C 112.285156 172.753906 112.449219 172.777344 112.59375 172.824219 C 112.742188 172.871094 112.871094 172.945312 112.988281 173.027344 C 113.105469 173.113281 113.207031 173.21875 113.296875 173.328125 C 113.386719 173.441406 113.460938 173.566406 113.519531 173.703125 C 113.578125 173.839844 113.617188 173.988281 113.621094 174.152344 C 113.621094 174.15625 113.621094 174.160156 113.621094 174.164062 C 113.644531 174.238281 113.792969 174.660156 114.332031 175.011719 C 114.636719 175.214844 114.71875 175.453125 114.730469 175.617188 C 114.738281 175.761719 114.707031 175.894531 114.652344 176.007812 C 114.71875 176.011719 114.785156 176.019531 114.851562 176.035156 C 114.96875 176.0625 115.085938 176.109375 115.1875 176.183594 C 115.394531 176.339844 115.503906 176.574219 115.550781 176.789062 C 115.585938 176.957031 115.597656 177.121094 115.59375 177.28125 C 115.800781 177.277344 116.113281 177.316406 116.355469 177.535156 C 116.601562 177.757812 116.707031 178.097656 116.667969 178.550781 C 116.667969 178.554688 116.667969 178.558594 116.671875 178.5625 C 116.679688 178.589844 116.714844 178.617188 116.769531 178.652344 C 116.808594 178.675781 116.859375 178.699219 116.921875 178.730469 C 117.359375 178.949219 117.785156 179.253906 117.558594 180.117188 C 117.996094 180.371094 118.183594 180.628906 118.183594 180.96875 C 118.183594 181.328125 117.882812 181.644531 117.359375 181.925781 Z M 131.828125 179.648438 L 114.601562 162.417969 C 110.335938 158.152344 103.351562 158.152344 99.085938 162.417969 L 81.859375 179.648438 C 77.589844 183.914062 77.589844 190.894531 81.859375 195.160156 L 99.085938 212.390625 C 103.351562 216.65625 110.335938 216.65625 114.601562 212.390625 L 131.828125 195.160156 C 136.097656 190.894531 136.097656 183.914062 131.828125 179.648438 " fill-opacity="1" fill-rule="nonzero"/><path fill="#ffffff" d="M 117.433594 180.488281 C 117.421875 180.523438 117.40625 180.558594 117.390625 180.59375 C 117.199219 181.171875 116.125 181.640625 114.1875 181.976562 C 112.359375 182.296875 109.882812 182.472656 107.210938 182.472656 C 104.535156 182.472656 102.015625 182.289062 100.125 181.960938 C 99.191406 181.796875 98.457031 181.609375 97.9375 181.394531 C 97.316406 181.140625 97.015625 180.847656 97.015625 180.507812 C 97.015625 180.503906 97.015625 180.5 97.015625 180.496094 C 96.695312 180.710938 96.644531 180.882812 96.644531 180.96875 C 96.644531 181.335938 97.433594 181.882812 99.644531 182.335938 C 101.667969 182.746094 104.359375 182.972656 107.222656 182.972656 C 110.085938 182.972656 112.777344 182.746094 114.800781 182.335938 C 117.011719 181.882812 117.800781 181.335938 117.800781 180.96875 C 117.800781 180.839844 117.753906 180.6875 117.433594 180.488281 " fill-opacity="1" fill-rule="nonzero"/><path fill="#ffffff" d="M 116.957031 182.113281 C 116.59375 182.265625 116.15625 182.40625 115.664062 182.53125 L 112.449219 203.394531 L 115.269531 182.625 C 113.140625 183.105469 110.132812 183.355469 107.222656 183.355469 C 104.238281 183.355469 101.144531 183.09375 99.007812 182.585938 C 99.007812 182.585938 99.007812 182.585938 99.003906 182.585938 L 101.828125 203.382812 L 98.609375 182.488281 C 98.609375 182.484375 98.609375 182.484375 98.609375 182.484375 C 98.171875 182.367188 97.785156 182.238281 97.457031 182.101562 C 97.457031 182.101562 97.453125 182.101562 97.453125 182.101562 L 100.953125 203.933594 C 101.011719 204.070312 101.460938 204.996094 102.859375 205.328125 C 104.414062 205.699219 110.0625 205.574219 112.085938 205.085938 C 112.296875 205.035156 112.46875 204.980469 112.59375 204.921875 C 112.601562 204.917969 112.609375 204.914062 112.617188 204.910156 C 113.492188 204.644531 113.589844 203.371094 113.59375 203.359375 C 113.59375 203.351562 113.59375 203.347656 113.59375 203.339844 L 116.960938 182.113281 C 116.960938 182.113281 116.960938 182.113281 116.957031 182.113281 " fill-opacity="1" fill-rule="nonzero"/><g fill="#ffffff" fill-opacity="1"><g transform="translate(148.149971, 187.678816)"><g><path d="M 7.25 0.140625 C 6.019531 0.140625 4.84375 -0.0546875 3.71875 -0.453125 C 2.59375 -0.847656 1.722656 -1.367188 1.109375 -2.015625 L 1.796875 -3.359375 C 2.390625 -2.753906 3.179688 -2.265625 4.171875 -1.890625 C 5.171875 -1.523438 6.195312 -1.34375 7.25 -1.34375 C 8.726562 -1.34375 9.835938 -1.613281 10.578125 -2.15625 C 11.316406 -2.707031 11.6875 -3.414062 11.6875 -4.28125 C 11.6875 -4.9375 11.484375 -5.460938 11.078125 -5.859375 C 10.679688 -6.253906 10.191406 -6.554688 9.609375 -6.765625 C 9.023438 -6.984375 8.21875 -7.21875 7.1875 -7.46875 C 5.9375 -7.78125 4.941406 -8.082031 4.203125 -8.375 C 3.460938 -8.664062 2.828125 -9.109375 2.296875 -9.703125 C 1.773438 -10.304688 1.515625 -11.117188 1.515625 -12.140625 C 1.515625 -12.972656 1.734375 -13.734375 2.171875 -14.421875 C 2.609375 -15.109375 3.285156 -15.65625 4.203125 -16.0625 C 5.117188 -16.46875 6.253906 -16.671875 7.609375 -16.671875 C 8.554688 -16.671875 9.476562 -16.539062 10.375 -16.28125 C 11.28125 -16.03125 12.066406 -15.675781 12.734375 -15.21875 L 12.140625 -13.828125 C 11.453125 -14.273438 10.710938 -14.613281 9.921875 -14.84375 C 9.128906 -15.070312 8.359375 -15.1875 7.609375 -15.1875 C 6.160156 -15.1875 5.066406 -14.90625 4.328125 -14.34375 C 3.597656 -13.789062 3.234375 -13.070312 3.234375 -12.1875 C 3.234375 -11.53125 3.429688 -11 3.828125 -10.59375 C 4.234375 -10.195312 4.738281 -9.890625 5.34375 -9.671875 C 5.957031 -9.460938 6.773438 -9.234375 7.796875 -8.984375 C 9.003906 -8.679688 9.984375 -8.382812 10.734375 -8.09375 C 11.484375 -7.800781 12.117188 -7.359375 12.640625 -6.765625 C 13.160156 -6.171875 13.421875 -5.375 13.421875 -4.375 C 13.421875 -3.539062 13.195312 -2.78125 12.75 -2.09375 C 12.300781 -1.40625 11.609375 -0.859375 10.671875 -0.453125 C 9.742188 -0.0546875 8.601562 0.140625 7.25 0.140625 Z M 7.25 0.140625 "/></g></g></g><g fill="#ffffff" fill-opacity="1"><g transform="translate(162.67939, 187.678816)"><g><path d="M 25.390625 -16.53125 L 19.828125 0 L 17.984375 0 L 13.140625 -14.109375 L 8.265625 0 L 6.453125 0 L 0.875 -16.53125 L 2.671875 -16.53125 L 7.4375 -2.3125 L 12.375 -16.53125 L 14.015625 -16.53125 L 18.875 -2.25 L 23.71875 -16.53125 Z M 25.390625 -16.53125 "/></g></g></g><g fill="#ffffff" fill-opacity="1"><g transform="translate(188.926848, 187.678816)"><g><path d="M 14.390625 -1.515625 L 14.390625 0 L 2.6875 0 L 2.6875 -16.53125 L 14.03125 -16.53125 L 14.03125 -15.03125 L 4.4375 -15.03125 L 4.4375 -9.140625 L 13 -9.140625 L 13 -7.65625 L 4.4375 -7.65625 L 4.4375 -1.515625 Z M 14.390625 -1.515625 "/></g></g></g><g fill="#ffffff" fill-opacity="1"><g transform="translate(204.732019, 187.678816)"><g><path d="M 14.390625 -1.515625 L 14.390625 0 L 2.6875 0 L 2.6875 -16.53125 L 14.03125 -16.53125 L 14.03125 -15.03125 L 4.4375 -15.03125 L 4.4375 -9.140625 L 13 -9.140625 L 13 -7.65625 L 4.4375 -7.65625 L 4.4375 -1.515625 Z M 14.390625 -1.515625 "/></g></g></g><g fill="#ffffff" fill-opacity="1"><g transform="translate(220.53719, 187.678816)"><g><path d="M 5.90625 -15.03125 L 0.09375 -15.03125 L 0.09375 -16.53125 L 13.46875 -16.53125 L 13.46875 -15.03125 L 7.65625 -15.03125 L 7.65625 0 L 5.90625 0 Z M 5.90625 -15.03125 "/></g></g></g><g fill="#ffffff" fill-opacity="1"><g transform="translate(234.09798, 187.678816)"><g><path d="M 16.515625 -16.53125 L 16.515625 0 L 15.078125 0 L 4.4375 -13.421875 L 4.4375 0 L 2.6875 0 L 2.6875 -16.53125 L 4.140625 -16.53125 L 14.796875 -3.125 L 14.796875 -16.53125 Z M 16.515625 -16.53125 "/></g></g></g><g fill="#ffffff" fill-opacity="1"><g transform="translate(253.305171, 187.678816)"><g><path d="M 14.390625 -1.515625 L 14.390625 0 L 2.6875 0 L 2.6875 -16.53125 L 14.03125 -16.53125 L 14.03125 -15.03125 L 4.4375 -15.03125 L 4.4375 -9.140625 L 13 -9.140625 L 13 -7.65625 L 4.4375 -7.65625 L 4.4375 -1.515625 Z M 14.390625 -1.515625 "/></g></g></g><g fill="#ffffff" fill-opacity="1"><g transform="translate(269.110342, 187.678816)"><g><path d="M 7.25 0.140625 C 6.019531 0.140625 4.84375 -0.0546875 3.71875 -0.453125 C 2.59375 -0.847656 1.722656 -1.367188 1.109375 -2.015625 L 1.796875 -3.359375 C 2.390625 -2.753906 3.179688 -2.265625 4.171875 -1.890625 C 5.171875 -1.523438 6.195312 -1.34375 7.25 -1.34375 C 8.726562 -1.34375 9.835938 -1.613281 10.578125 -2.15625 C 11.316406 -2.707031 11.6875 -3.414062 11.6875 -4.28125 C 11.6875 -4.9375 11.484375 -5.460938 11.078125 -5.859375 C 10.679688 -6.253906 10.191406 -6.554688 9.609375 -6.765625 C 9.023438 -6.984375 8.21875 -7.21875 7.1875 -7.46875 C 5.9375 -7.78125 4.941406 -8.082031 4.203125 -8.375 C 3.460938 -8.664062 2.828125 -9.109375 2.296875 -9.703125 C 1.773438 -10.304688 1.515625 -11.117188 1.515625 -12.140625 C 1.515625 -12.972656 1.734375 -13.734375 2.171875 -14.421875 C 2.609375 -15.109375 3.285156 -15.65625 4.203125 -16.0625 C 5.117188 -16.46875 6.253906 -16.671875 7.609375 -16.671875 C 8.554688 -16.671875 9.476562 -16.539062 10.375 -16.28125 C 11.28125 -16.03125 12.066406 -15.675781 12.734375 -15.21875 L 12.140625 -13.828125 C 11.453125 -14.273438 10.710938 -14.613281 9.921875 -14.84375 C 9.128906 -15.070312 8.359375 -15.1875 7.609375 -15.1875 C 6.160156 -15.1875 5.066406 -14.90625 4.328125 -14.34375 C 3.597656 -13.789062 3.234375 -13.070312 3.234375 -12.1875 C 3.234375 -11.53125 3.429688 -11 3.828125 -10.59375 C 4.234375 -10.195312 4.738281 -9.890625 5.34375 -9.671875 C 5.957031 -9.460938 6.773438 -9.234375 7.796875 -8.984375 C 9.003906 -8.679688 9.984375 -8.382812 10.734375 -8.09375 C 11.484375 -7.800781 12.117188 -7.359375 12.640625 -6.765625 C 13.160156 -6.171875 13.421875 -5.375 13.421875 -4.375 C 13.421875 -3.539062 13.195312 -2.78125 12.75 -2.09375 C 12.300781 -1.40625 11.609375 -0.859375 10.671875 -0.453125 C 9.742188 -0.0546875 8.601562 0.140625 7.25 0.140625 Z M 7.25 0.140625 "/></g></g></g><g fill="#ffffff" fill-opacity="1"><g transform="translate(283.63976, 187.678816)"><g><path d="M 7.25 0.140625 C 6.019531 0.140625 4.84375 -0.0546875 3.71875 -0.453125 C 2.59375 -0.847656 1.722656 -1.367188 1.109375 -2.015625 L 1.796875 -3.359375 C 2.390625 -2.753906 3.179688 -2.265625 4.171875 -1.890625 C 5.171875 -1.523438 6.195312 -1.34375 7.25 -1.34375 C 8.726562 -1.34375 9.835938 -1.613281 10.578125 -2.15625 C 11.316406 -2.707031 11.6875 -3.414062 11.6875 -4.28125 C 11.6875 -4.9375 11.484375 -5.460938 11.078125 -5.859375 C 10.679688 -6.253906 10.191406 -6.554688 9.609375 -6.765625 C 9.023438 -6.984375 8.21875 -7.21875 7.1875 -7.46875 C 5.9375 -7.78125 4.941406 -8.082031 4.203125 -8.375 C 3.460938 -8.664062 2.828125 -9.109375 2.296875 -9.703125 C 1.773438 -10.304688 1.515625 -11.117188 1.515625 -12.140625 C 1.515625 -12.972656 1.734375 -13.734375 2.171875 -14.421875 C 2.609375 -15.109375 3.285156 -15.65625 4.203125 -16.0625 C 5.117188 -16.46875 6.253906 -16.671875 7.609375 -16.671875 C 8.554688 -16.671875 9.476562 -16.539062 10.375 -16.28125 C 11.28125 -16.03125 12.066406 -15.675781 12.734375 -15.21875 L 12.140625 -13.828125 C 11.453125 -14.273438 10.710938 -14.613281 9.921875 -14.84375 C 9.128906 -15.070312 8.359375 -15.1875 7.609375 -15.1875 C 6.160156 -15.1875 5.066406 -14.90625 4.328125 -14.34375 C 3.597656 -13.789062 3.234375 -13.070312 3.234375 -12.1875 C 3.234375 -11.53125 3.429688 -11 3.828125 -10.59375 C 4.234375 -10.195312 4.738281 -9.890625 5.34375 -9.671875 C 5.957031 -9.460938 6.773438 -9.234375 7.796875 -8.984375 C 9.003906 -8.679688 9.984375 -8.382812 10.734375 -8.09375 C 11.484375 -7.800781 12.117188 -7.359375 12.640625 -6.765625 C 13.160156 -6.171875 13.421875 -5.375 13.421875 -4.375 C 13.421875 -3.539062 13.195312 -2.78125 12.75 -2.09375 C 12.300781 -1.40625 11.609375 -0.859375 10.671875 -0.453125 C 9.742188 -0.0546875 8.601562 0.140625 7.25 0.140625 Z M 7.25 0.140625 "/></g></g></g><g fill="#ffffff" fill-opacity="1"><g transform="translate(149.09784, 203.672857)"><g><path d="M 0.402344 0 L 1.804688 0 L 1.804688 -0.171875 C 1.390625 -0.171875 1.300781 -0.371094 1.300781 -0.976562 L 1.300781 -5.699219 L 4.121094 0 L 4.90625 0 L 7.726562 -5.699219 L 7.726562 -0.976562 C 7.726562 -0.371094 7.636719 -0.171875 7.222656 -0.171875 L 7.222656 0 L 8.933594 0 L 8.933594 -0.171875 C 8.511719 -0.171875 8.429688 -0.371094 8.429688 -0.976562 L 8.429688 -5.671875 C 8.429688 -6.273438 8.511719 -6.476562 8.933594 -6.476562 L 8.933594 -6.648438 L 8.300781 -6.648438 C 7.886719 -6.636719 7.734375 -6.597656 7.484375 -6.074219 L 4.695312 -0.433594 L 1.902344 -6.074219 C 1.640625 -6.597656 1.511719 -6.636719 1.027344 -6.648438 L 0.402344 -6.648438 L 0.402344 -6.476562 C 0.816406 -6.476562 0.90625 -6.273438 0.90625 -5.671875 L 0.90625 -0.976562 C 0.90625 -0.371094 0.816406 -0.171875 0.402344 -0.171875 Z M 0.402344 0 "/></g></g></g><g fill="#ffffff" fill-opacity="1"><g transform="translate(162.832585, 203.672857)"><g><path d="M 0.402344 0 L 2.113281 0 L 2.113281 -0.171875 C 1.703125 -0.171875 1.613281 -0.371094 1.613281 -0.976562 L 1.613281 -5.671875 C 1.613281 -6.273438 1.703125 -6.476562 2.113281 -6.476562 L 2.113281 -6.648438 L 0.402344 -6.648438 L 0.402344 -6.476562 C 0.816406 -6.476562 0.90625 -6.273438 0.90625 -5.671875 L 0.90625 -0.976562 C 0.90625 -0.371094 0.816406 -0.171875 0.402344 -0.171875 Z M 0.402344 0 "/></g></g></g><g fill="#ffffff" fill-opacity="1"><g transform="translate(169.752419, 203.672857)"><g><path d="M 0.402344 0 L 1.78125 0 L 1.78125 -0.171875 C 1.371094 -0.171875 1.277344 -0.371094 1.277344 -0.976562 L 1.277344 -5.914062 L 5.246094 -0.472656 C 5.570312 -0.03125 5.710938 0 6.316406 0 L 6.316406 -5.671875 C 6.316406 -6.273438 6.394531 -6.476562 6.820312 -6.476562 L 6.820312 -6.648438 L 5.4375 -6.648438 L 5.4375 -6.476562 C 5.851562 -6.476562 5.941406 -6.273438 5.941406 -5.671875 L 5.941406 -0.734375 L 1.964844 -6.175781 C 1.683594 -6.566406 1.550781 -6.636719 1.027344 -6.648438 L 0.402344 -6.648438 L 0.402344 -6.476562 C 0.816406 -6.476562 0.90625 -6.273438 0.90625 -5.671875 L 0.90625 -0.976562 C 0.90625 -0.371094 0.816406 -0.171875 0.402344 -0.171875 Z M 0.402344 0 "/></g></g></g><g fill="#ffffff" fill-opacity="1"><g transform="translate(181.373233, 203.672857)"><g><path d="M 0.402344 0 L 2.113281 0 L 2.113281 -0.171875 C 1.703125 -0.171875 1.613281 -0.371094 1.613281 -0.976562 L 1.613281 -5.671875 C 1.613281 -6.273438 1.703125 -6.476562 2.113281 -6.476562 L 2.113281 -6.648438 L 0.402344 -6.648438 L 0.402344 -6.476562 C 0.816406 -6.476562 0.90625 -6.273438 0.90625 -5.671875 L 0.90625 -0.976562 C 0.90625 -0.371094 0.816406 -0.171875 0.402344 -0.171875 Z M 0.402344 0 "/></g></g></g><g fill="#ffffff" fill-opacity="1"><g transform="translate(188.293068, 203.672857)"><g><path d="M 0.402344 0 L 1.804688 0 L 1.804688 -0.171875 C 1.390625 -0.171875 1.300781 -0.371094 1.300781 -0.976562 L 1.300781 -5.699219 L 4.121094 0 L 4.90625 0 L 7.726562 -5.699219 L 7.726562 -0.976562 C 7.726562 -0.371094 7.636719 -0.171875 7.222656 -0.171875 L 7.222656 0 L 8.933594 0 L 8.933594 -0.171875 C 8.511719 -0.171875 8.429688 -0.371094 8.429688 -0.976562 L 8.429688 -5.671875 C 8.429688 -6.273438 8.511719 -6.476562 8.933594 -6.476562 L 8.933594 -6.648438 L 8.300781 -6.648438 C 7.886719 -6.636719 7.734375 -6.597656 7.484375 -6.074219 L 4.695312 -0.433594 L 1.902344 -6.074219 C 1.640625 -6.597656 1.511719 -6.636719 1.027344 -6.648438 L 0.402344 -6.648438 L 0.402344 -6.476562 C 0.816406 -6.476562 0.90625 -6.273438 0.90625 -5.671875 L 0.90625 -0.976562 C 0.90625 -0.371094 0.816406 -0.171875 0.402344 -0.171875 Z M 0.402344 0 "/></g></g></g><g fill="#ffffff" fill-opacity="1"><g transform="translate(202.027814, 203.672857)"><g><path d="M 0.203125 0 L 2.1875 0 L 2.1875 -0.171875 C 1.359375 -0.171875 1.320312 -0.34375 1.5625 -0.894531 L 2.507812 -3.152344 L 5.054688 -3.152344 L 6.003906 -0.894531 C 6.234375 -0.34375 6.195312 -0.171875 5.367188 -0.171875 L 5.367188 0 L 7.726562 0 L 7.726562 -0.171875 C 7.242188 -0.171875 7 -0.34375 6.769531 -0.894531 L 4.339844 -6.648438 L 2.75 -6.648438 L 2.75 -6.476562 C 3.375 -6.476562 3.445312 -6.335938 3.261719 -5.871094 L 1.160156 -0.894531 C 0.925781 -0.34375 0.683594 -0.171875 0.203125 -0.171875 Z M 2.667969 -3.515625 L 3.789062 -6.175781 L 4.894531 -3.515625 Z M 2.667969 -3.515625 "/></g></g></g><g fill="#ffffff" fill-opacity="1"><g transform="translate(214.353278, 203.672857)"><g><path d="M 0.402344 0 L 4.996094 0 L 5.015625 -0.121094 L 5.1875 -1.371094 L 5.027344 -1.390625 C 4.894531 -0.5625 4.671875 -0.371094 4.070312 -0.371094 L 1.613281 -0.371094 L 1.613281 -5.671875 C 1.613281 -6.273438 1.703125 -6.476562 2.113281 -6.476562 L 2.113281 -6.648438 L 0.402344 -6.648438 L 0.402344 -6.476562 C 0.816406 -6.476562 0.90625 -6.273438 0.90625 -5.671875 L 0.90625 -0.976562 C 0.90625 -0.371094 0.816406 -0.171875 0.402344 -0.171875 Z M 0.402344 0 "/></g></g></g><g fill="#ffffff" fill-opacity="1"><g transform="translate(224.242683, 203.672857)"><g><path d="M 0.402344 0 L 2.113281 0 L 2.113281 -0.171875 C 1.703125 -0.171875 1.613281 -0.371094 1.613281 -0.976562 L 1.613281 -5.671875 C 1.613281 -6.273438 1.703125 -6.476562 2.113281 -6.476562 L 2.113281 -6.648438 L 0.402344 -6.648438 L 0.402344 -6.476562 C 0.816406 -6.476562 0.90625 -6.273438 0.90625 -5.671875 L 0.90625 -0.976562 C 0.90625 -0.371094 0.816406 -0.171875 0.402344 -0.171875 Z M 0.402344 0 "/></g></g></g><g fill="#ffffff" fill-opacity="1"><g transform="translate(231.162519, 203.672857)"><g><path d="M 3.203125 0.101562 C 4.511719 0.101562 5.621094 -0.363281 5.621094 -1.652344 C 5.621094 -2.972656 4.53125 -3.253906 3.101562 -3.777344 C 2.355469 -4.050781 1.351562 -4.332031 1.351562 -5.207031 C 1.351562 -5.972656 2.015625 -6.375 3.023438 -6.375 C 4.21875 -6.375 5.046875 -5.773438 4.5625 -4.574219 L 5.269531 -4.371094 C 5.792969 -6.082031 4.410156 -6.75 3.023438 -6.75 C 1.683594 -6.75 0.644531 -6.234375 0.644531 -5.117188 C 0.644531 -3.90625 1.804688 -3.585938 3.011719 -3.113281 C 4.050781 -2.710938 4.914062 -2.570312 4.914062 -1.5625 C 4.914062 -0.683594 4.289062 -0.273438 3.222656 -0.273438 C 1.953125 -0.273438 0.683594 -0.785156 1.207031 -2.46875 L 0.503906 -2.667969 C -0.0195312 -0.484375 1.660156 0.101562 3.203125 0.101562 Z M 3.203125 0.101562 "/></g></g></g><g fill="#ffffff" fill-opacity="1"><g transform="translate(241.484774, 203.672857)"><g><path d="M 2.296875 0 L 4.007812 0 L 4.007812 -0.171875 C 3.597656 -0.171875 3.503906 -0.371094 3.503906 -0.976562 L 3.503906 -6.273438 L 4.886719 -6.273438 C 5.5 -6.273438 5.710938 -6.082031 5.84375 -5.257812 L 6.003906 -5.277344 L 5.832031 -6.527344 L 5.8125 -6.648438 L 0.492188 -6.648438 L 0.472656 -6.527344 L 0.300781 -5.277344 L 0.464844 -5.257812 C 0.59375 -6.082031 0.816406 -6.273438 1.421875 -6.273438 L 2.800781 -6.273438 L 2.800781 -0.976562 C 2.800781 -0.371094 2.710938 -0.171875 2.296875 -0.171875 Z M 2.296875 0 "/></g></g></g><g fill="#ffffff" fill-opacity="1"><g transform="translate(252.189543, 203.672857)"><g/></g></g><g fill="#ffffff" fill-opacity="1"><g transform="translate(258.918119, 203.672857)"><g><path d="M 3.355469 0.101562 C 5.027344 0.101562 6.011719 -0.765625 5.964844 -2.496094 L 5.257812 -2.296875 C 5.359375 -0.957031 4.554688 -0.273438 3.355469 -0.273438 C 1.894531 -0.273438 1.109375 -1.410156 1.109375 -3.324219 C 1.109375 -5.238281 1.996094 -6.375 3.453125 -6.375 C 4.554688 -6.375 5.359375 -5.691406 5.257812 -4.453125 L 5.964844 -4.25 C 6.011719 -5.882812 5.027344 -6.75 3.453125 -6.75 C 1.542969 -6.75 0.402344 -5.488281 0.402344 -3.324219 C 0.402344 -1.160156 1.441406 0.101562 3.355469 0.101562 Z M 3.355469 0.101562 "/></g></g></g><g fill="#ffffff" fill-opacity="1"><g transform="translate(269.683289, 203.672857)"><g><path d="M 0.203125 0 L 2.1875 0 L 2.1875 -0.171875 C 1.359375 -0.171875 1.320312 -0.34375 1.5625 -0.894531 L 2.507812 -3.152344 L 5.054688 -3.152344 L 6.003906 -0.894531 C 6.234375 -0.34375 6.195312 -0.171875 5.367188 -0.171875 L 5.367188 0 L 7.726562 0 L 7.726562 -0.171875 C 7.242188 -0.171875 7 -0.34375 6.769531 -0.894531 L 4.339844 -6.648438 L 2.75 -6.648438 L 2.75 -6.476562 C 3.375 -6.476562 3.445312 -6.335938 3.261719 -5.871094 L 1.160156 -0.894531 C 0.925781 -0.34375 0.683594 -0.171875 0.203125 -0.171875 Z M 2.667969 -3.515625 L 3.789062 -6.175781 L 4.894531 -3.515625 Z M 2.667969 -3.515625 "/></g></g></g><g fill="#ffffff" fill-opacity="1"><g transform="translate(282.008747, 203.672857)"><g><path d="M 0.402344 0 L 2.113281 0 L 2.113281 -0.171875 C 1.703125 -0.171875 1.613281 -0.371094 1.613281 -0.976562 L 1.613281 -2.859375 L 3.476562 -2.859375 C 4.078125 -2.859375 4.28125 -2.769531 4.28125 -2.355469 L 4.453125 -2.355469 L 4.453125 -3.738281 L 4.28125 -3.738281 C 4.28125 -3.324219 4.078125 -3.234375 3.476562 -3.234375 L 1.613281 -3.234375 L 1.613281 -6.273438 L 4.007812 -6.273438 C 4.613281 -6.273438 4.84375 -6.042969 4.996094 -5.007812 L 5.167969 -5.035156 L 4.933594 -6.585938 L 4.925781 -6.648438 L 0.402344 -6.648438 L 0.402344 -6.476562 C 0.816406 -6.476562 0.90625 -6.273438 0.90625 -5.671875 L 0.90625 -0.976562 C 0.90625 -0.371094 0.816406 -0.171875 0.402344 -0.171875 Z M 0.402344 0 "/></g></g></g><g fill="#ffffff" fill-opacity="1"><g transform="translate(291.978679, 203.672857)"><g><path d="M 0.402344 0 L 4.996094 0 L 5.015625 -0.121094 L 5.1875 -1.371094 L 5.027344 -1.390625 C 4.894531 -0.5625 4.671875 -0.371094 4.070312 -0.371094 L 1.613281 -0.371094 L 1.613281 -3.191406 L 3.253906 -3.191406 C 3.859375 -3.191406 4.050781 -3.101562 4.050781 -2.6875 L 4.21875 -2.6875 L 4.21875 -4.058594 L 4.050781 -4.058594 C 4.050781 -3.644531 3.859375 -3.554688 3.253906 -3.554688 L 1.613281 -3.554688 L 1.613281 -6.273438 L 3.96875 -6.273438 C 4.574219 -6.273438 4.792969 -6.082031 4.925781 -5.257812 L 5.085938 -5.277344 L 4.914062 -6.527344 L 4.894531 -6.648438 L 0.402344 -6.648438 L 0.402344 -6.476562 C 0.816406 -6.476562 0.90625 -6.273438 0.90625 -5.671875 L 0.90625 -0.976562 C 0.90625 -0.371094 0.816406 -0.171875 0.402344 -0.171875 Z M 0.402344 0 "/></g></g></g></svg>